<?xml version="1.0" standalone="no"?><!DOCTYPE svg PUBLIC "-//W3C//DTD SVG 1.1//EN" "http://www.w3.org/Graphics/SVG/1.1/DTD/svg11.dtd"><svg class="icon" width="200px" height="200.00px" viewBox="0 0 1024 1024" version="1.1" xmlns="http://www.w3.org/2000/svg"><path d="M795.648 762.0096H419.1744c-80.8448 0-146.432-65.536-146.432-146.432V239.104c0-80.8448 65.536-146.432 146.432-146.432h376.4736c80.8448 0 146.432 65.536 146.432 146.432v376.4736c0 80.896-65.536 146.432-146.432 146.432z" fill="#FFDF99" /><path d="M604.8256 939.776H228.352c-80.8448 0-146.432-65.536-146.432-146.432V416.9216c0-80.8448 65.536-146.432 146.432-146.432h376.4736c80.8448 0 146.432 65.536 146.432 146.432v376.4736c-0.0512 80.8448-65.5872 146.3808-146.432 146.3808z" fill="#FF5D50" /><path d="M552.96 553.9328H467.7632V468.7872c0-28.2624-22.9376-51.2-51.2-51.2s-51.2 22.9376-51.2 51.2v85.1456H280.2176c-28.2624 0-51.2 22.9376-51.2 51.2s22.9376 51.2 51.2 51.2h85.1456v85.1456c0 28.2624 22.9376 51.2 51.2 51.2s51.2-22.9376 51.2-51.2v-85.1456H552.96c28.2624 0 51.2-22.9376 51.2-51.2s-22.9376-51.2-51.2-51.2z" fill="#FFDF99" /></svg>