<?xml version="1.0" standalone="no"?><!DOCTYPE svg PUBLIC "-//W3C//DTD SVG 1.1//EN" "http://www.w3.org/Graphics/SVG/1.1/DTD/svg11.dtd"><svg class="icon" width="200px" height="200.00px" viewBox="0 0 1024 1024" version="1.1" xmlns="http://www.w3.org/2000/svg"><path d="M284.6 346.1h168v163.5h-168z" fill="#25B195" /><path d="M485.6 545.6H210.1V270.1h275.5v275.5z m-238.5-37h201.5V307.1H247.1v201.5z" fill="#666767" /><path d="M593.6 346.1h168v163.5h-168z" fill="#25B195" /><path d="M794.6 545.6H519.1V270.1h275.5v275.5z m-238.5-37h201.5V307.1H556.1v201.5z" fill="#666767" /><path d="M593.6 650.6h168v163.5h-168z" fill="#25B195" /><path d="M794.6 850.1H519.1V574.6h275.5v275.5z m-238.5-37h201.5V611.6H556.1v201.5z" fill="#666767" /><path d="M284.6 650.6h168v163.5h-168z" fill="#25B195" /><path d="M485.6 850.1H210.1V574.6h275.5v275.5z m-238.5-37h201.5V611.6H247.1v201.5z" fill="#666767" /></svg>