<?xml version="1.0" standalone="no"?><!DOCTYPE svg PUBLIC "-//W3C//DTD SVG 1.1//EN" "http://www.w3.org/Graphics/SVG/1.1/DTD/svg11.dtd"><svg class="icon" width="200px" height="200.00px" viewBox="0 0 1024 1024" version="1.1" xmlns="http://www.w3.org/2000/svg"><path d="M356.141176 662.588235l-47.435294 125.741177c-4.517647 11.294118-2.258824 24.847059 6.02353 33.882353 15.058824 17.317647 44.423529 41.411765 92.611764 40.658823 12.8 0 24.094118-6.776471 30.117648-18.070588l61.741176-118.211765c9.035294-17.317647 1.505882-38.4-16.564706-46.682353l-81.317647-36.141176c-17.317647-8.282353-37.647059 0.752941-45.176471 18.823529z" fill="#EB9B50" /><path d="M591.058824 614.4c25.6 9.788235 64.752941 13.552941 90.352941 15.058824 10.541176 0.752941 18.070588-10.541176 12.8-20.329412-21.835294-42.164706-40.658824-103.905882-50.447059-137.788236-3.011765-10.541176 6.776471-20.329412 16.564706-17.317647 21.082353 6.023529 45.176471 11.294118 63.247059 15.811765 11.294118 2.258824 20.329412-8.282353 15.811764-18.823529-43.670588-98.635294-52.705882-248.470588-54.964706-313.22353 0-12.047059-14.305882-18.070588-23.341176-9.788235-48.188235 43.670588-162.635294 140.047059-264.282353 176.941176-10.541176 3.764706-12.047059 18.070588-3.011765 24.847059 15.811765 10.541176 36.141176 24.094118 54.964706 35.388236 9.035294 5.270588 9.035294 18.823529-0.752941 24.094117-30.870588 16.564706-88.847059 45.176471-134.776471 57.976471-10.541176 3.011765-13.552941 15.811765-5.270588 23.341176 18.823529 17.317647 48.188235 42.917647 73.035294 54.964706 8.282353 3.764706 10.541176 15.058824 4.517647 21.835294-25.6 28.611765-65.505882 46.682353-129.505882 68.517647-9.035294 3.011765-12.8 14.305882-6.776471 21.835294 20.329412 26.352941 69.270588 79.058824 158.117647 115.2 87.341176 39.152941 159.623529 38.4 192.752942 34.635295 9.788235-0.752941 15.058824-11.294118 10.541176-19.576471-27.858824-60.988235-42.917647-102.4-39.905882-140.8 2.258824-9.788235 12.047059-15.811765 20.329412-12.8z" fill="#3C9546" /><path d="M657.317647 168.658824S579.764706 261.270588 421.647059 320c2.258824-0.752941 15.058824 9.788235 16.564706 10.541176 12.8 8.282353 25.6 16.564706 39.152941 24.094118 24.847059 15.811765 60.235294 42.917647 91.858823 32.376471 27.105882-9.035294 36.141176-45.929412 60.988236-60.235294 9.788235-5.270588 22.588235-7.529412 27.858823-17.317647 2.258824-4.517647 3.011765-9.788235 3.011765-15.058824 1.505882-28.611765 0.752941-57.223529 2.258823-86.588235 0.752941-3.764706 5.270588-50.447059-6.023529-39.152941zM402.070588 437.458824c-18.823529 6.776471-37.647059 11.294118-55.717647 20.329411-2.258824 0.752941-3.764706 2.258824-5.270588 3.764706-3.011765 4.517647-1.505882 11.294118 2.258823 15.058824s9.035294 6.023529 14.305883 8.282353c9.035294 3.764706 16.564706 9.788235 24.094117 16.564706 7.529412 7.529412 14.305882 15.811765 22.588236 23.341176 8.282353 6.776471 18.823529 12.047059 29.364706 9.788235 10.541176-2.258824 18.823529-10.541176 30.117647-11.294117 6.776471 0 12.8 3.011765 19.57647 5.270588 8.282353 3.011765 17.317647 5.270588 26.352941 6.023529 6.023529 0.752941 12.047059 0 17.317648-2.258823 6.023529-3.764706 9.788235-9.788235 14.305882-15.058824 8.282353-9.035294 21.082353-13.552941 33.129412-15.811764 12.047059-2.258824 24.847059-3.011765 36.141176-6.776471 3.764706-0.752941 6.776471-2.258824 9.035294-5.270588 2.258824-3.011765 3.764706-6.776471 1.505883-9.788236-0.752941-1.505882-3.011765-3.011765-4.517647-3.764705-37.647059-21.835294-80.564706-33.129412-118.211765-54.964706-7.529412-4.517647-15.811765-10.541176-24.094118-11.294118-6.776471-0.752941-12.047059 3.764706-18.823529 6.776471-18.070588 6.776471-35.388235 15.058824-53.458824 21.082353zM413.364706 569.223529c-3.011765-1.505882-6.776471-2.258824-9.788235-2.258823-5.270588 0-9.788235 3.011765-13.552942 6.023529-18.823529 12.8-37.647059 26.352941-57.97647 35.388236-13.552941 6.023529-27.858824 10.541176-42.164706 15.058823-5.270588 2.258824-12.047059 5.270588-12.047059 11.294118 0 3.011765 3.011765 6.023529 5.270588 8.282353 6.023529 6.023529 12.047059 12.047059 19.576471 15.811764s16.564706 6.023529 24.094118 3.011765c5.270588-2.258824 9.788235-6.023529 15.058823-7.529412 9.035294-3.011765 18.070588 0.752941 27.105882 3.011765 18.823529 6.023529 38.4 7.529412 57.22353 2.258824 9.035294-2.258824 18.070588-6.776471 27.105882-9.035295 18.823529-4.517647 38.4 0.752941 57.22353 6.02353 6.023529 1.505882 11.294118 3.011765 17.317647 3.011765 6.023529 0 12.047059-2.258824 15.811764-6.776471 3.011765-3.764706 3.764706-7.529412 4.517647-12.047059 0.752941-3.011765 1.505882-6.776471 2.258824-9.788235 0.752941-3.011765 1.505882-5.270588 0.752941-8.282353-3.011765-9.035294-18.823529-9.035294-26.352941-10.541177-12.8-3.011765-24.847059-6.776471-36.141176-11.294117-25.6-9.035294-49.694118-21.835294-75.294118-31.62353z" fill="#58AB5E" /><path d="M542.870588 283.858824c-4.517647 3.011765-9.035294 5.270588-12.047059 9.788235-3.011765 3.764706-4.517647 10.541176-0.752941 14.305882 3.011765 4.517647 9.788235 4.517647 14.305883 2.258824 4.517647-2.258824 9.035294-6.023529 12.8-9.035294 9.035294-7.529412 19.576471-12.8 30.870588-15.058824 7.529412-1.505882 15.058824-2.258824 21.835294-5.270588 8.282353-3.764706 14.305882-11.294118 20.329412-18.070588 8.282353-9.788235 24.094118-27.858824 16.564706-42.164706-7.529412-14.305882-18.070588-3.764706-25.6 3.764706-23.341176 23.341176-49.694118 43.670588-78.305883 59.482353zM505.223529 310.211765c-6.776471-0.752941-13.552941 2.258824-18.070588 7.529411-0.752941 0.752941-1.505882 2.258824-1.505882 3.764706 0 2.258824 1.505882 3.764706 3.764706 4.517647 1.505882 0.752941 3.764706 0.752941 6.023529 0 3.764706-0.752941 7.529412-1.505882 10.541177-4.517647 2.258824-3.011765 3.764706-7.529412 1.505882-10.541176M495.435294 438.964706c-6.023529-3.011765-12.8-6.776471-19.57647-6.776471-6.776471-0.752941-13.552941 1.505882-19.576471 3.764706-18.070588 6.023529-36.141176 12.047059-53.458824 18.82353-6.776471 2.258824-15.058824 8.282353-12.8 15.058823 0.752941 2.258824 3.764706 4.517647 6.02353 5.270588 15.058824 6.023529 29.364706-14.305882 45.929412-12.8 6.023529 0 12.047059 3.764706 18.070588 6.02353 6.023529 2.258824 13.552941 3.764706 18.070588-0.752941 2.258824-1.505882 3.011765-3.764706 5.270588-5.270589 5.270588-3.764706 13.552941-1.505882 19.576471 0.752942 6.776471 3.011765 57.976471 26.352941 54.211765 10.541176-1.505882-6.023529-17.317647-12.047059-22.588236-14.305882-12.8-6.776471-25.6-13.552941-39.152941-20.329412zM417.129412 591.811765c-5.270588-1.505882-10.541176-3.764706-15.811765-3.011765-5.270588 0-10.541176 3.011765-15.811765 6.023529-15.058824 8.282353-30.117647 15.811765-45.17647 24.094118-2.258824 1.505882-5.270588 3.764706-4.517647 6.023529 0.752941 1.505882 2.258824 2.258824 3.764706 3.011765 17.317647 6.023529 35.388235-9.035294 53.458823-12.8 2.258824-0.752941 5.270588-0.752941 6.776471 0 3.011765 1.505882 3.764706 5.270588 6.023529 7.529412 5.270588 6.023529 15.058824 3.764706 22.588235 2.258823 13.552941-3.011765 27.858824-2.258824 40.658824 3.011765 9.035294 3.011765 16.564706 8.282353 25.6 10.541177 6.023529 1.505882 22.588235 3.764706 21.082353-6.776471-1.505882-8.282353-21.835294-11.294118-28.611765-13.552941-22.588235-9.788235-45.929412-18.070588-70.023529-26.352941z" fill="#7CC07E" /><path d="M664.094118 338.823529c3.764706 30.870588 17.317647 60.235294 35.388235 84.329412 0.752941 1.505882 3.764706 0.752941 3.011765-1.505882-11.294118-27.858824-21.835294-56.470588-33.882353-84.329412-0.752941-2.258824-4.517647-0.752941-4.517647 1.505882zM667.105882 399.811765c4.517647 6.023529 8.282353 12.8 10.541177 19.57647 0 0.752941 2.258824 0.752941 2.258823 0-0.752941-8.282353-4.517647-15.058824-10.541176-21.082353-1.505882-1.505882-3.011765 0.752941-2.258824 1.505883zM656.564706 409.6c1.505882 3.764706 3.011765 7.529412 6.023529 10.541176 1.505882 1.505882 3.764706-0.752941 2.258824-2.258823-2.258824-3.011765-3.764706-6.776471-6.02353-9.788235 0-0.752941-2.258824 0-2.258823 1.505882zM643.764706 410.352941c0 0.752941 0.752941 1.505882 0.752941 2.258824 0 0.752941 1.505882 0 0.752941 0 0-0.752941-0.752941-1.505882-0.752941-2.258824 0-0.752941-1.505882-0.752941-0.752941 0zM698.729412 440.470588v0.752941c0 0.752941 1.505882 0 0.752941 0v-0.752941c0-0.752941-0.752941-0.752941-0.752941 0zM649.788235 363.670588c2.258824 8.282353 4.517647 15.811765 7.529412 24.094118 0.752941 1.505882 3.011765 1.505882 3.011765 0-0.752941-9.035294-3.011765-17.317647-6.776471-24.847059-1.505882-2.258824-3.764706-0.752941-3.764706 0.752941zM621.176471 512.752941c8.282353 34.635294 16.564706 68.517647 39.905882 96.376471 0.752941 0.752941 3.011765 0 2.258823-1.505883-12.8-31.623529-30.117647-63.247059-35.388235-97.129411-0.752941-3.764706-8.282353-2.258824-6.77647 2.258823zM621.929412 566.211765c3.764706 12.047059 7.529412 27.105882 15.811764 37.647059 0.752941 1.505882 3.011765 0.752941 3.011765-1.505883-1.505882-6.776471-5.270588-12.047059-7.529412-18.823529-2.258824-6.023529-4.517647-12.8-6.77647-18.82353-1.505882-2.258824-5.270588-0.752941-4.517647 1.505883zM608.376471 569.976471c3.011765 7.529412 5.270588 15.811765 9.035294 22.588235 0.752941 1.505882 3.011765 0.752941 3.011764-1.505882-1.505882-7.529412-4.517647-15.058824-7.529411-22.588236-0.752941-2.258824-5.270588-1.505882-4.517647 1.505883zM594.823529 580.517647c0.752941 3.764706 1.505882 7.529412 3.011765 10.541177 0.752941 0.752941 2.258824 0 1.505882-0.752942-1.505882-3.011765-3.011765-6.776471-3.764705-9.788235 0-0.752941-0.752941-0.752941-0.752942 0zM570.729412 551.905882c2.258824 10.541176 3.764706 21.835294 8.282353 32.376471 0.752941 2.258824 3.764706 0.752941 3.764706-1.505882-1.505882-10.541176-5.270588-21.082353-8.282353-31.62353-1.505882-1.505882-4.517647-0.752941-3.764706 0.752941zM557.176471 571.482353v3.011765c0 0.752941 1.505882 0.752941 1.505882 0v-3.011765c-0.752941-0.752941-2.258824-0.752941-1.505882 0zM532.329412 563.952941c0 2.258824 0.752941 4.517647 0.752941 6.776471 0 2.258824 3.764706 3.011765 3.764706 0v-6.776471c0-3.011765-4.517647-2.258824-4.517647 0zM551.905882 679.905882c-0.752941 15.058824 3.764706 31.623529 6.02353 46.682353 2.258824 12.8 6.776471 24.847059 14.305882 35.388236 0.752941 0.752941 2.258824 0 2.258824-0.752942-1.505882-12.8-6.776471-24.094118-9.035294-36.141176-3.764706-15.058824-7.529412-30.117647-10.541177-45.176471-0.752941-2.258824-3.011765-1.505882-3.011765 0zM542.117647 722.823529c1.505882 6.776471 3.011765 14.305882 5.270588 21.082353 0.752941 1.505882 3.011765 1.505882 3.011765-0.752941-0.752941-7.529412-2.258824-14.305882-3.764706-21.835294-0.752941-2.258824-5.270588-0.752941-4.517647 1.505882zM532.329412 731.858824c1.505882 4.517647 2.258824 9.035294 3.764706 13.552941 0.752941 1.505882 3.764706 1.505882 3.764706-0.752941 0-5.270588-2.258824-9.788235-5.270589-14.305883-0.752941-0.752941-3.011765 0-2.258823 1.505883zM499.2 705.505882c0.752941 9.788235 1.505882 20.329412 3.011765 30.117647 1.505882 9.035294 2.258824 18.823529 7.529411 25.6 1.505882 2.258824 4.517647 0 4.517648-1.505882 1.505882-8.282353-3.011765-17.317647-5.270589-25.6-2.258824-9.788235-4.517647-18.823529-6.77647-28.611765 0-2.258824-3.011765-2.258824-3.011765 0zM477.364706 735.623529c0.752941 3.011765 0.752941 6.023529 1.505882 9.035295 0 2.258824 3.764706 1.505882 3.011765-0.752942-0.752941-3.011765-0.752941-6.023529-1.505882-9.035294 0-2.258824-3.764706-1.505882-3.011765 0.752941zM457.788235 740.141176v3.764706c0 0.752941 1.505882 0.752941 1.505883 0v-3.764706c0-0.752941-1.505882-0.752941-1.505883 0zM427.670588 720.564706c-1.505882 3.764706-2.258824 9.035294-1.505882 12.8 0.752941 2.258824 3.011765 1.505882 3.764706 0 1.505882-3.764706 2.258824-8.282353 2.258823-12.047059 0-2.258824-3.011765-3.764706-4.517647-0.752941zM414.117647 713.035294c0 2.258824 0 5.270588-0.752941 7.529412-0.752941 2.258824 3.011765 3.011765 3.764706 0.752941 1.505882-3.011765 1.505882-5.270588 1.505882-8.282353 0-2.258824-4.517647-2.258824-4.517647 0zM398.305882 707.764706v6.023529c0 2.258824 2.258824 2.258824 3.764706 0.752941 1.505882-2.258824 1.505882-5.270588 1.505883-7.529411-0.752941-3.011765-6.023529-2.258824-5.270589 0.752941zM384.752941 708.517647c-0.752941 0-0.752941 0 0 0-0.752941 1.505882 0.752941 3.011765 1.505883 1.505882 0 0 0-0.752941 0.752941-0.752941 0-1.505882-2.258824-2.258824-2.258824-0.752941zM364.423529 693.458824c0.752941 0 0.752941-0.752941 0-0.752942s-0.752941 0.752941 0 0.752942zM631.717647 385.505882c2.258824 9.788235 3.011765 21.082353 6.776471 30.870589 0.752941 1.505882 3.764706 0.752941 3.764706-0.752942-0.752941-10.541176-5.270588-20.329412-7.529412-30.117647-0.752941-3.011765-3.764706-2.258824-3.011765 0zM617.411765 396.8c0 4.517647-0.752941 9.035294 0 12.8 0 1.505882 2.258824 1.505882 3.011764 0 0.752941-3.764706 0-9.035294 0-12.8 0.752941-2.258824-2.258824-2.258824-3.011764 0zM597.835294 397.552941c-1.505882 2.258824-2.258824 5.270588-0.752941 8.282353 0.752941 2.258824 5.270588 1.505882 3.764706-1.505882-0.752941-1.505882-0.752941-3.011765 0-5.270588 1.505882-1.505882-1.505882-3.764706-3.011765-1.505883zM496.941176 392.282353c36.141176 24.847059 78.305882 41.411765 120.470589 52.705882 0.752941 0 1.505882-1.505882 0.752941-1.505882-41.411765-15.058824-79.811765-33.882353-118.964706-54.211765-2.258824-1.505882-3.764706 1.505882-2.258824 3.011765zM430.682353 553.411765c34.635294 22.588235 75.294118 39.905882 114.447059 51.2 1.505882 0.752941 2.258824-1.505882 0.752941-2.258824-37.647059-17.317647-75.294118-35.388235-112.941177-52.705882-2.258824-1.505882-4.517647 2.258824-2.258823 3.764706zM460.8 682.917647c-1.505882 8.282353-1.505882 15.811765 0.752941 24.094118 0.752941 2.258824 4.517647 1.505882 3.764706-0.752941-1.505882-7.529412-2.258824-14.305882-1.505882-21.835295 0.752941-2.258824-2.258824-3.764706-3.011765-1.505882zM475.858824 688.188235c0 3.011765 0.752941 5.270588 2.258823 6.776471 0.752941 0.752941 1.505882 0 0.752941-0.752941-1.505882-1.505882-2.258824-3.764706-1.505882-6.02353 0-0.752941-1.505882-0.752941-1.505882 0zM521.035294 682.164706c0.752941 5.270588 1.505882 10.541176 3.011765 15.058823 0.752941 1.505882 3.011765 1.505882 3.011765-0.752941-0.752941-5.270588-2.258824-10.541176-3.011765-15.811764-0.752941-1.505882-3.764706-0.752941-3.011765 1.505882zM569.976471 521.035294c-0.752941 4.517647-0.752941 8.282353-1.505883 12.8 0 2.258824 3.011765 2.258824 3.764706 0.752941 0.752941-4.517647 1.505882-9.035294 1.505882-13.552941 0-2.258824-3.764706-2.258824-3.764705 0zM588.8 529.317647c0 0.752941 0 0.752941 0.752941 1.505882 0 0.752941 1.505882 0.752941 1.505883-0.752941 0-0.752941 0-0.752941-0.752942-1.505882-0.752941 0-1.505882 0-1.505882 0.752941zM629.458824 347.105882c0 6.023529-0.752941 11.294118 0 17.317647 0 3.011765 4.517647 3.011765 4.517647 0 0.752941-6.023529 0.752941-11.294118 0.752941-17.317647 0-3.011765-4.517647-3.011765-5.270588 0zM675.388235 249.223529c0 23.341176 0 46.682353 2.258824 70.02353 0 1.505882 3.011765 1.505882 3.011765 0 0-23.341176-1.505882-46.682353-2.258824-70.02353 0-2.258824-3.011765-2.258824-3.011765 0zM697.976471 377.976471v3.011764c0 0.752941 0.752941 0.752941 0.752941 0v-3.011764c0.752941-0.752941-0.752941-0.752941-0.752941 0z" fill="#2E7F35" /><path d="M344.847059 746.917647c-8.282353 15.811765-16.564706 31.623529-20.329412 48.941177-0.752941 1.505882 2.258824 3.011765 3.011765 1.505882 9.788235-15.058824 14.305882-32.376471 20.329412-48.941177 0-1.505882-2.258824-2.258824-3.011765-1.505882zM351.623529 777.788235c-5.270588 12.047059-13.552941 24.847059-16.564705 37.647059-0.752941 3.011765 3.011765 4.517647 4.517647 2.258824 6.776471-11.294118 9.788235-26.352941 13.552941-39.152942 0.752941-1.505882-1.505882-2.258824-1.505883-0.752941zM371.952941 759.717647l-18.070588 38.4c-2.258824 4.517647 5.270588 8.282353 6.776471 3.011765 4.517647-13.552941 9.788235-26.352941 14.305882-39.905883 0.752941-2.258824-2.258824-3.011765-3.011765-1.505882zM345.6 817.694118c-1.505882 3.764706-3.011765 7.529412-4.517647 12.047058-0.752941 3.764706 4.517647 6.023529 6.023529 3.011765 2.258824-3.764706 3.764706-7.529412 5.270589-11.294117 3.011765-6.023529-4.517647-9.035294-6.776471-3.764706zM374.964706 789.082353c-2.258824 3.764706-4.517647 9.788235-4.517647 14.305882 0 2.258824 3.011765 2.258824 3.764706 0.752941 2.258824-3.764706 3.764706-9.788235 3.764706-14.305882 0.752941-1.505882-2.258824-2.258824-3.011765-0.752941zM399.058824 769.505882c-12.047059 23.341176-24.847059 47.435294-33.129412 73.035294-0.752941 3.011765 3.764706 5.270588 5.270588 2.258824 12.8-23.341176 22.588235-48.941176 32.376471-73.788235 0-2.258824-3.764706-3.764706-4.517647-1.505883zM396.047059 816.188235c-2.258824 3.764706-3.764706 7.529412-6.02353 11.294118-1.505882 2.258824 3.011765 4.517647 3.764706 1.505882 1.505882-3.764706 2.258824-8.282353 3.011765-12.047059 0.752941-0.752941 0-1.505882-0.752941-0.752941zM421.647059 783.811765c-9.788235 21.835294-22.588235 42.917647-30.870588 64.752941-0.752941 3.011765 3.764706 4.517647 5.270588 2.258823 12.8-19.576471 21.082353-43.670588 30.117647-65.505882 0.752941-2.258824-3.764706-4.517647-4.517647-1.505882zM415.623529 825.223529c0 2.258824-0.752941 3.764706-2.258823 5.270589-1.505882 2.258824 1.505882 4.517647 3.011765 2.258823s3.011765-4.517647 3.011764-7.529412c1.505882-3.011765-3.011765-3.764706-3.764706 0zM451.011765 788.329412c-2.258824 5.270588-4.517647 10.541176-7.529412 15.058823-1.505882 3.011765 3.011765 5.270588 4.517647 2.258824 2.258824-5.270588 4.517647-10.541176 6.776471-15.058824 2.258824-3.011765-2.258824-5.270588-3.764706-2.258823zM434.447059 819.952941c-3.011765 5.270588-6.023529 11.294118-9.035294 16.564706-2.258824 4.517647-6.023529 9.035294-6.02353 14.305882 0 1.505882 1.505882 2.258824 2.258824 1.505883 4.517647-3.011765 6.023529-8.282353 9.035294-12.8 3.011765-5.270588 6.023529-11.294118 9.035294-17.317647 1.505882-2.258824-3.764706-5.270588-5.270588-2.258824zM408.847059 844.047059c-1.505882 2.258824-3.011765 5.270588-4.517647 7.529412-0.752941 2.258824 2.258824 3.764706 3.764706 2.258823 1.505882-2.258824 3.011765-5.270588 4.517647-8.282353 0.752941-2.258824-3.011765-3.764706-3.764706-1.505882zM426.917647 801.129412l-2.258823 4.517647c-0.752941 2.258824 2.258824 4.517647 3.764705 2.258823l2.258824-4.517647c1.505882-3.011765-3.011765-5.270588-3.764706-2.258823zM384.752941 841.035294c3.011765 0 3.011765-5.270588 0-5.270588-3.011765 0.752941-3.011765 5.270588 0 5.270588z" fill="#D48440" /><path d="M382.494118 848.564706c6.776471 0 6.776471-9.788235 0-9.788235-6.776471-0.752941-6.776471 9.788235 0 9.788235z" fill="#D48440" /><path d="M380.988235 850.070588c6.776471 0 6.776471-9.788235 0-9.788235-6.023529 0-6.023529 9.788235 0 9.788235zM364.423529 814.682353c-2.258824 3.764706-3.764706 7.529412-5.270588 10.541176-1.505882 3.011765-4.517647 6.776471-5.270588 9.788236-0.752941 2.258824 2.258824 4.517647 4.517647 2.258823 3.011765-3.011765 4.517647-6.776471 6.023529-10.541176 1.505882-3.764706 3.011765-7.529412 3.011765-12.047059 0-1.505882-2.258824-1.505882-3.011765 0zM320 807.152941c0 0.752941-0.752941 1.505882-0.752941 2.258824 0 1.505882 2.258824 2.258824 2.258823 0v-2.258824c0.752941-0.752941-0.752941-1.505882-1.505882 0zM330.541176 746.917647l-6.77647 13.552941c-0.752941 2.258824 2.258824 3.011765 3.764706 1.505883 2.258824-4.517647 3.764706-9.035294 6.023529-13.552942 0-1.505882-2.258824-3.011765-3.011765-1.505882zM403.576471 793.6c0.752941 0 0.752941-1.505882 0-1.505882-0.752941-0.752941-0.752941 1.505882 0 1.505882z" fill="#D48440" /></svg>