<?xml version="1.0" standalone="no"?><!DOCTYPE svg PUBLIC "-//W3C//DTD SVG 1.1//EN" "http://www.w3.org/Graphics/SVG/1.1/DTD/svg11.dtd"><svg class="icon" width="200px" height="200.00px" viewBox="0 0 1024 1024" version="1.1" xmlns="http://www.w3.org/2000/svg"><path d="M865.882353 689.694118c6.023529-12.047059 7.529412-25.6 3.011765-39.152942-6.776471-20.329412-26.352941-34.635294-47.435294-34.635294-5.270588 0-10.541176 0.752941-15.811765 3.011765l-27.858824 9.788235-6.77647-3.764706c11.294118-12.8 15.811765-31.623529 9.788235-48.941176-1.505882-6.023529-4.517647-11.294118-9.035294-16.564706 6.023529-6.023529 10.541176-12.8 12.8-21.082353 5.270588-17.317647 0.752941-34.635294-10.541177-47.435294l3.764706-2.258823 31.62353 9.035294c4.517647 1.505882 9.788235 2.258824 14.305882 2.258823 22.588235 0 41.411765-14.305882 48.188235-35.388235 3.764706-12.8 2.258824-26.352941-3.764706-38.4l-0.752941-0.752941c6.776471-15.811765 6.776471-34.635294-2.258823-51.2-9.788235-16.564706-27.105882-27.105882-45.929412-27.858824-6.023529-9.788235-15.058824-16.564706-26.352941-20.329412-2.258824-0.752941-4.517647-1.505882-6.02353-1.505882-27.858824-6.023529-54.211765 12.8-59.482353 39.152941l-6.023529 29.364706-6.023529 3.011765c-5.270588-16.564706-19.576471-29.364706-37.647059-33.129412-3.764706-0.752941-7.529412-0.752941-10.541177-0.752941-2.258824 0-5.270588 0-7.529411 0.752941-2.258824-7.529412-8.282353-15.058824-14.305883-21.835294-11.294118-12.047059-24.847059-18.070588-47.435294-15.058824v-4.517647l24.847059-21.835294c10.541176-9.788235 17.317647-21.835294 17.317647-33.882353 0-10.541176-2.258824-20.329412-7.529412-29.364706-1.505882-3.011765-3.764706-5.270588-6.023529-7.529411-9.035294-9.035294-21.082353-15.058824-33.129412-15.811765-11.294118-15.058824-30.117647-23.341176-48.188235-23.341177-18.070588 0-37.647059 9.788235-49.694118 25.6-13.552941 0.752941-26.352941 6.776471-35.388235 17.317648-9.035294 9.788235-13.552941 22.588235-12.8 35.388235 0.752941 14.305882 2.258824 26.352941 12.047059 35.388235l17.317647 19.576471v6.77647s-0.752941-0.752941-3.011765-0.752941c-14.305882 0-26.352941 6.023529-35.388235 16.564706-4.517647 4.517647-6.776471 9.788235-9.035294 15.811765-7.529412-2.258824-15.058824-2.258824-24.094118 0-17.317647 3.764706-30.117647 16.564706-35.388235 32.37647l-3.011765-2.258823-7.529412-31.62353c-5.270588-22.588235-25.6-38.4-48.941176-38.4-3.764706 0-8.282353 0.752941-12.047059 1.505883-12.8 3.011765-24.094118 11.294118-30.870588 22.588235l-0.752942 0.752941c-18.070588 1.505882-33.882353 12.047059-42.917647 27.858824-9.788235 17.317647-9.788235 37.647059-0.752941 54.211764-6.023529 12.047059-7.529412 25.6-3.011764 39.152942 6.776471 20.329412 26.352941 33.882353 47.435294 33.882353 5.270588 0 10.541176-0.752941 15.811764-3.011765l28.611765-9.788235 6.023529 3.011764c-11.294118 12.8-15.811765 31.623529-9.788235 48.941177 2.258824 6.023529 5.270588 11.294118 9.035294 15.811764-6.023529 6.023529-10.541176 12.8-12.8 21.082353-5.270588 17.317647-0.752941 34.635294 10.541177 47.435294l-3.764706 2.258824-31.62353-9.035294c-4.517647-1.505882-9.788235-2.258824-14.305882-2.258824-21.835294 0-41.411765 15.058824-48.188235 35.388236-3.764706 12.8-2.258824 26.352941 3.764706 38.4l0.752941 0.752941c-6.776471 15.811765-6.776471 34.635294 2.258823 51.2 9.788235 16.564706 27.105882 27.105882 45.929412 27.858823 6.776471 11.294118 18.823529 19.576471 32.376471 22.588236 3.011765 0.752941 6.776471 0.752941 9.788235 0.752941 24.094118 0 44.423529-17.317647 48.941177-40.658824l6.023529-29.364706 5.270588-3.011764c1.505882 3.764706 3.011765 7.529412 5.270588 11.294117 7.529412 11.294118 18.823529 18.823529 31.62353 21.835294 6.023529 1.505882 12.047059 1.505882 18.070588 0.752942 2.258824 8.282353 6.776471 15.058824 12.047059 21.835294 9.035294 9.788235 21.082353 15.058824 33.882353 15.811764h1.505882v3.764706l-18.070588 21.835294c-9.035294 9.035294-12.047059 21.082353-12.047059 35.388236 0 12.8 6.023529 25.6 15.058824 35.388235 9.788235 9.788235 22.588235 15.811765 36.141176 15.811765 12.047059 15.058824 30.870588 23.341176 47.435294 23.341176 18.823529 0 38.4-9.788235 49.694118-26.352941 12.047059-1.505882 23.341176-6.776471 32.37647-16.564706 18.823529-21.082353 15.058824-52.705882-5.270588-70.77647l-24.094117-19.576471v-6.776471c22.588235 3.011765 36.141176-3.011765 48.188235-16.564705 4.517647-4.517647 8.282353-9.788235 10.541176-15.811765 7.529412 2.258824 16.564706 2.258824 25.6 0.752941 12.8-3.011765 24.847059-11.294118 31.62353-22.588235 1.505882-3.011765 3.764706-6.023529 4.517647-9.788236l3.011765 1.505883 7.529411 31.623529c5.270588 22.588235 25.6 38.4 48.941177 38.4 3.764706 0 7.529412-0.752941 11.294117-1.505882 12.8-3.011765 24.094118-11.294118 31.62353-22.588235l0.752941-0.752942c18.070588-1.505882 33.882353-12.047059 42.917647-27.858823 7.529412-12.8 9.788235-27.858824 5.270588-42.164706 1.505882-3.011765 0-6.776471-1.505882-9.788235z" fill="#FFFFFF" /><path d="M774.776471 461.552941L719.058824 493.176471l24.094117 7.529411c12.8 3.764706 20.329412 17.317647 16.564706 30.870589-3.011765 10.541176-12.8 17.317647-23.341176 17.317647-2.258824 0-4.517647 0-6.776471-0.752942l-60.235294-18.070588-8.282353-3.011764-55.717647 31.623529 27.858823 15.811765 27.105883 15.811764 65.505882-21.835294c2.258824-0.752941 5.270588-1.505882 7.529412-1.505882 10.541176 0 19.576471 6.776471 23.341176 16.564706 4.517647 12.8-2.258824 27.105882-15.058823 30.870588l-24.094118 8.282353 57.22353 33.129412 39.152941-13.552941c2.258824-0.752941 5.270588-1.505882 7.529412-1.505883 10.541176 0 19.576471 6.776471 23.341176 16.564706 3.764706 12.047059-2.258824 25.6-13.552941 30.117647h0.752941c14.305882 8.282353 19.576471 27.105882 11.294118 41.411765-5.270588 9.035294-15.811765 15.058824-26.352942 15.058823-4.517647 0-9.035294-0.752941-13.552941-3.011764 0.752941 5.270588-0.752941 11.294118-3.764706 15.811764-3.764706 5.270588-9.035294 9.788235-15.058823 11.294118-1.505882 0.752941-3.764706 0.752941-5.270588 0.752941-11.294118 0-21.082353-7.529412-24.094118-18.823529L745.411765 707.764706l-54.964706-31.62353 6.023529 24.847059c1.505882 6.776471 0.752941 12.8-3.011764 18.82353-3.764706 5.270588-9.035294 9.788235-15.058824 11.294117-1.505882 0.752941-3.764706 0.752941-5.270588 0.752942-11.294118 0-20.329412-7.529412-23.341177-18.82353l-15.058823-70.023529-38.4-21.835294-20.329412-9.788236v63.247059l51.952941 45.176471c9.788235 8.282353 10.541176 24.094118 1.505883 34.635294-4.517647 5.270588-10.541176 8.282353-17.317648 8.282353-5.270588 0-12.8-2.258824-17.317647-6.02353L576 740.894118v64.752941l31.623529 27.105882c9.788235 8.282353 10.541176 23.341176 1.505883 34.635294-4.517647 5.270588-10.541176 8.282353-17.317647 8.282353-4.517647 0-8.282353-1.505882-12.047059-3.011764-0.752941 17.317647-18.070588 29.364706-33.129412 29.364705-15.058824 0-31.623529-11.294118-33.129412-27.858823-4.517647 3.011765-9.035294 4.517647-14.305882 4.517647-6.776471 0-12.8-3.011765-17.317647-7.529412-4.517647-4.517647-6.776471-11.294118-6.776471-17.317647 0-6.776471 0-12.8 5.270589-17.317647l28.611764-29.364706v-64L493.176471 760.470588c-3.764706 3.764706-6.776471 5.270588-11.294118 6.776471h-3.011765c-6.776471 0-12.8-3.011765-17.317647-7.529412-9.035294-9.788235-11.294118-25.6-1.505882-34.635294l48.941176-48.941177v-64l-51.2 31.62353-11.294117 67.011765c-2.258824 11.294118-12.047059 19.576471-23.341177 19.57647-1.505882 0-3.011765 0-4.517647-0.752941-13.552941-3.011765-21.835294-15.811765-18.823529-28.611765l5.270588-24.847059-57.223529 33.129412-8.282353 40.658824c-2.258824 11.294118-12.047059 19.576471-24.094118 19.57647-1.505882 0-3.011765 0-5.270588-0.752941-12.8-2.258824-21.082353-14.305882-19.576471-27.105882H289.882353c-4.517647 3.011765-9.788235 3.764706-15.058824 3.764706-10.541176 0-21.082353-6.023529-26.352941-15.058824-8.282353-13.552941-3.764706-31.623529 9.035294-40.658823-5.270588-2.258824-9.035294-6.023529-12.047058-11.294118-3.011765-6.023529-3.764706-12.8-1.505883-18.823529 3.011765-10.541176 12.8-17.317647 23.341177-17.317647 2.258824 0 4.517647 0.752941 6.77647 0.752941l41.411765 12.8 54.964706-31.62353-24.094118-7.529411c-12.8-3.764706-20.329412-17.317647-16.564706-30.870589 3.011765-10.541176 12.8-17.317647 23.341177-17.317647 2.258824 0 4.517647 0 6.77647 0.752941l68.517647 20.329412 54.964706-32.37647-53.458823-30.117647-65.505883 21.835294c-2.258824 0.752941-5.270588 1.505882-7.529411 1.505882-5.270588 0-9.788235-1.505882-13.552942-4.517647-4.517647-3.011765-7.529412-7.529412-9.788235-12.8-4.517647-12.8 2.258824-27.105882 15.058824-30.870588l24.094117-8.282353-57.223529-33.129412-39.152941 13.552941c-2.258824 0.752941-5.270588 1.505882-7.529412 1.505883-10.541176 0-19.576471-6.776471-23.341176-16.564706-3.764706-12.047059 2.258824-25.6 13.552941-30.117647h-0.752941c-14.305882-8.282353-19.576471-27.105882-11.294118-41.411765 5.270588-9.035294 15.811765-15.058824 26.352941-15.058824 4.517647 0 9.035294 0.752941 13.552941 3.011765-0.752941-5.270588 0.752941-11.294118 3.764706-15.811765 3.764706-5.270588 9.035294-9.788235 15.058824-11.294117 1.505882-0.752941 3.764706-0.752941 6.023529-0.752941 11.294118 0 21.082353 7.529412 24.094118 18.823529l9.788235 42.164706 54.964706 31.623529-5.270588-24.847059c-3.011765-13.552941 5.270588-26.352941 18.070588-29.364705 1.505882-0.752941 3.764706-0.752941 6.023529-0.752942 11.294118 0 21.082353 7.529412 23.341177 18.82353l6.023529 25.6 7.529412 44.423529 51.952941 31.62353v-63.247059l-39.905882-37.647059-7.529412-7.529412c-5.270588-4.517647-6.776471-10.541176-7.529412-17.317647 0-6.776471 2.258824-12.8 6.776471-17.317647 4.517647-5.270588 11.294118-8.282353 18.070588-8.282353 6.023529 0 11.294118 2.258824 15.811765 6.02353L500.705882 368.941176l6.776471 8.282353v-65.505882l-27.858824-27.105882c-4.517647-4.517647-6.776471-10.541176-6.77647-17.317647 0-6.776471 3.011765-12.8 6.77647-17.317647 4.517647-5.270588 11.294118-8.282353 18.82353-8.282353 5.270588 0 9.788235 1.505882 14.305882 4.517647 0-17.317647 18.070588-30.117647 33.882353-30.117647 15.058824 0 31.623529 11.294118 33.129412 27.105882 9.035294-6.023529 21.082353-4.517647 29.364706 3.764706 1.505882 1.505882 2.258824 2.258824 3.011764 3.764706 3.011765 4.517647 4.517647 9.788235 4.517648 15.058823 0 6.023529-4.517647 12.047059-9.035295 15.811765L576 310.964706v63.247059l18.823529-16.564706c4.517647-4.517647 11.294118-6.776471 17.317647-6.776471 6.023529 0 12.8 3.011765 17.317648 7.529412 9.788235 10.541176 7.529412 25.6-1.505883 34.635294L576 441.976471v64l54.211765-30.870589 12.047059-67.011764c2.258824-11.294118 12.8-19.576471 24.847058-19.576471 1.505882 0 3.764706 0 5.270589 0.752941 13.552941 2.258824 21.835294 15.811765 19.57647 28.611765l-5.270588 24.847059 57.223529-33.129412 8.282353-40.658824c2.258824-11.294118 12.8-19.576471 24.094118-19.57647 1.505882 0 3.011765 0 4.517647 0.752941 8.282353 1.505882 15.058824 7.529412 18.070588 15.058824 1.505882 3.764706 2.258824 7.529412 1.505883 12.047058h0.752941c4.517647-3.011765 9.788235-3.764706 15.058823-3.764705 10.541176 0 21.082353 6.023529 26.352941 15.058823 8.282353 13.552941 3.764706 31.623529-9.035294 40.658824 5.270588 2.258824 9.788235 6.023529 12.047059 11.294117 3.011765 6.023529 3.764706 12.8 1.505883 18.82353-3.011765 10.541176-12.8 17.317647-23.341177 17.317647-2.258824 0-4.517647-0.752941-6.776471-0.752941l-42.164705-14.305883z" fill="#D44544" /><path d="M798.870588 364.423529L669.364706 529.317647l-8.282353-2.258823-55.717647 31.623529 27.858823 15.811765-36.894117 46.682353-16.564706 21.082353-97.882353 124.235294H478.117647c-6.776471 0-12.8-3.011765-17.317647-7.529412-9.035294-9.788235-11.294118-25.6-1.505882-34.635294l48.941176-48.941177v-64l-51.2 31.62353-11.294118 67.011764c-2.258824 11.294118-12.047059 19.576471-23.341176 19.576471-1.505882 0-3.011765 0-4.517647-0.752941-13.552941-3.011765-21.835294-15.811765-18.823529-28.611765l5.270588-24.847059-57.22353 33.129412-8.282353 40.658824c-2.258824 11.294118-12.047059 19.576471-24.094117 19.57647-1.505882 0-3.011765 0-5.270588-0.752941-12.8-2.258824-21.082353-14.305882-19.576471-27.105882h-0.752941c-4.517647 3.011765-9.788235 3.764706-15.058824 3.764706-10.541176 0-21.082353-6.023529-26.352941-15.058824-8.282353-13.552941-3.764706-31.623529 9.035294-40.658824-5.270588-2.258824-9.035294-6.023529-12.047059-11.294117-3.011765-6.023529-3.764706-12.8-1.505882-18.82353 3.011765-10.541176 12.8-17.317647 23.341176-17.317647 2.258824 0 4.517647 0.752941 6.776471 0.752942l41.411765 12.8 54.964706-31.62353-24.094118-7.529412c-12.8-3.764706-20.329412-17.317647-16.564706-30.870588 3.011765-10.541176 12.8-17.317647 23.341177-17.317647 2.258824 0 4.517647 0 6.77647 0.752941l68.517647 20.329412 54.964706-32.376471-52.705882-29.364705-65.505883 21.835294c-2.258824 0.752941-5.270588 1.505882-7.529411 1.505882-5.270588 0-9.788235-1.505882-13.552942-4.517647 33.882353-37.647059 70.023529-76.8 105.411765-115.952941l7.529412 44.423529 51.952941 31.62353v-63.247059l-39.905882-37.647059c11.294118-12.047059 23.341176-24.094118 34.635294-36.141177l9.788235-9.788235c34.635294-38.4 68.517647-75.294118 99.388235-108.423529 3.011765 4.517647 4.517647 9.788235 4.517648 15.058823 0 6.023529-4.517647 12.047059-9.035295 15.811765L576 310.964706v63.247059l18.823529-16.564706c4.517647-4.517647 11.294118-6.776471 17.317647-6.776471 6.023529 0 12.8 3.011765 17.317648 7.529412 9.788235 10.541176 7.529412 25.6-1.505883 34.635294L576 441.976471v64l54.211765-30.870589 12.047059-67.011764c2.258824-11.294118 12.8-19.576471 24.847058-19.576471 1.505882 0 3.764706 0 5.270589 0.752941 13.552941 2.258824 21.835294 15.811765 19.57647 28.611765l-5.270588 24.847059 57.223529-33.129412 8.282353-40.658824c2.258824-11.294118 12.8-19.576471 24.094118-19.57647 1.505882 0 3.011765 0 4.517647 0.752941 9.035294 0.752941 15.058824 6.776471 18.070588 14.305882z" fill="#FA6666" /></svg>