<?xml version="1.0" standalone="no"?><!DOCTYPE svg PUBLIC "-//W3C//DTD SVG 1.1//EN" "http://www.w3.org/Graphics/SVG/1.1/DTD/svg11.dtd"><svg class="icon" width="200px" height="200.00px" viewBox="0 0 1024 1024" version="1.1" xmlns="http://www.w3.org/2000/svg"><path d="M402.823529 235.670588s0.752941 4.517647 2.258824 12.047059c11.294118 64 57.223529 354.635294-21.835294 371.2-88.094118 18.823529-274.070588 46.682353-215.341177 147.576471s460.047059 161.129412 503.717647 24.847058C715.294118 655.058824 861.364706 257.505882 832 305.694118c-13.552941 21.835294-429.176471-70.023529-429.176471-70.02353z" fill="#D83E3E" /><path d="M591.811765 189.741176s-178.447059-3.764706-206.305883-6.023529c-27.105882-3.011765-30.117647 102.4-9.035294 107.670588 21.835294 5.270588 423.152941 76.047059 472.847059 48.941177 26.352941-15.058824 76.047059-136.282353 18.823529-135.529412-57.976471 1.505882-276.329412-15.058824-276.329411-15.058824z" fill="#FBC20E" /><path d="M370.447059 271.811765c-2.258824-0.752941-3.764706-2.258824-6.02353-3.764706 2.258824 12.8 6.023529 22.588235 12.8 24.094117 21.835294 5.270588 423.152941 76.047059 472.847059 48.941177 5.270588-3.011765 11.294118-10.541176 18.070588-20.329412-60.235294 24.094118-475.105882-43.670588-497.694117-48.941176z" fill="#E7AD12" /><path d="M671.623529 710.023529c-91.105882 0-165.647059 61.741176-165.647058 137.788236 0 7.529412 0.752941 15.058824 2.258823 22.588235 79.811765-3.764706 146.823529-27.105882 163.388235-78.305882 6.776471-21.082353 15.811765-48.941176 26.352942-79.811765-8.282353-1.505882-17.317647-2.258824-26.352942-2.258824zM252.235294 827.482353c8.282353-27.105882 12.8-59.482353 12.8-93.364706 0-30.117647-3.764706-58.729412-10.541176-84.329412-67.764706 21.835294-122.729412 55.717647-87.341177 117.458824 13.552941 22.588235 44.423529 42.917647 85.082353 60.235294z" fill="#44B14D" /><path d="M478.117647 346.352941c-6.776471-0.752941-14.305882-2.258824-20.329412 1.505883-9.035294 5.270588-9.788235 18.070588-9.035294 28.611764 2.258824 69.270588-0.752941 138.541176-10.541176 207.058824-2.258824 16.564706-5.270588 33.882353-16.564706 46.682353-16.564706 18.070588-43.670588 18.070588-67.011765 23.341176-3.011765 0.752941-6.023529 1.505882-6.77647 4.517647-1.505882 4.517647 4.517647 8.282353 9.788235 9.035294 27.858824 4.517647 56.470588-6.023529 82.070588-18.070588 27.105882-12.8 55.717647-28.611765 85.835294-26.352941 27.105882 2.258824 51.2 20.329412 78.305883 21.082353-5.270588-18.823529-6.776471-38.4-3.011765-57.22353s14.305882-36.894118 30.117647-48.188235c17.317647-12.047059 39.905882-15.058824 60.988235-18.823529s43.670588-10.541176 56.470588-27.858824c9.035294-12.047059 12.047059-27.105882 15.811765-41.411764 3.011765-12.8 6.023529-24.847059 9.788235-36.894118 3.011765-9.035294 7.529412-19.576471 6.02353-29.364706-3.011765-22.588235-32.376471-17.317647-48.941177-17.317647-54.211765-1.505882-107.670588-4.517647-161.129411-10.541177C538.352941 353.882353 508.235294 350.117647 478.117647 346.352941z" fill="#E35252" /><path d="M516.517647 396.8c0 12.8-10.541176 23.341176-23.341176 23.341176s-22.588235-10.541176-22.588236-23.341176 10.541176-23.341176 23.341177-23.341176 22.588235 10.541176 22.588235 23.341176zM667.105882 600.847059c0 12.8-10.541176 23.341176-23.341176 23.341176-12.8 0-23.341176-10.541176-23.341177-23.341176 0-12.8 10.541176-23.341176 23.341177-23.341177 12.8 0 23.341176 10.541176 23.341176 23.341177zM737.882353 438.964706c0 12.8-10.541176 23.341176-23.341177 23.341176s-23.341176-10.541176-23.341176-23.341176 10.541176-23.341176 23.341176-23.341177 23.341176 10.541176 23.341177 23.341177zM563.2 518.776471c0 12.8-10.541176 23.341176-23.341176 23.341176s-23.341176-10.541176-23.341177-23.341176c0-12.8 10.541176-23.341176 23.341177-23.341177s23.341176 10.541176 23.341176 23.341177zM530.070588 664.094118c0 12.8-10.541176 23.341176-23.341176 23.341176-12.8 0-23.341176-10.541176-23.341177-23.341176s10.541176-23.341176 23.341177-23.341177c12.8 0 23.341176 10.541176 23.341176 23.341177z" fill="#FBC20E" /><path d="M437.458824 798.870588m-23.341177 0a23.341176 23.341176 0 1 0 46.682353 0 23.341176 23.341176 0 1 0-46.682353 0Z" fill="#FBC20E" /><path d="M367.435294 702.494118c0 12.8-10.541176 23.341176-23.341176 23.341176-12.8 0-23.341176-10.541176-23.341177-23.341176 0-12.8 10.541176-23.341176 23.341177-23.341177 13.552941 0 23.341176 10.541176 23.341176 23.341177z" fill="#FBC20E" /><path d="M422.4 201.788235c-6.776471 0-15.058824 0.752941-20.329412 4.517647-7.529412 5.270588-9.035294 15.058824-10.541176 24.094118-1.505882 9.788235-2.258824 21.835294 6.023529 27.105882 9.788235 6.776471 21.835294-1.505882 32.376471-7.529411 22.588235-12.8 49.694118-13.552941 76.047059-10.541177 25.6 3.011765 51.2 9.788235 77.552941 10.541177 30.870588 0.752941 62.494118-8.282353 93.364706-3.764706 12.8 1.505882 25.6 6.023529 39.152941 7.529411 20.329412 2.258824 39.905882-0.752941 60.235294-0.752941s41.411765 4.517647 55.717647 18.82353c2.258824 2.258824 4.517647 5.270588 8.282353 6.77647 6.776471 3.011765 15.058824 0 19.576471-5.270588 4.517647-6.023529 6.776471-12.8 8.282352-20.329412 0.752941-2.258824 1.505882-5.270588 0.752942-8.282353-1.505882-5.270588-6.776471-7.529412-12.047059-9.035294-24.094118-7.529412-51.2-5.270588-76.8-6.77647-28.611765-1.505882-57.976471-4.517647-86.588235-7.529412-57.223529-6.023529-114.447059-12.8-171.670589-16.564706-33.882353-3.011765-67.011765-3.764706-99.388235-3.011765z" fill="#FCD53A" /><path d="M438.964706 210.823529c-7.529412 0-15.058824 0-21.082353 4.517647-6.023529 4.517647-8.282353 14.305882-2.258824 18.82353 6.023529 4.517647 14.305882 0 21.082353-3.764706 11.294118-5.270588 23.341176-6.776471 35.388236-6.776471 18.823529-0.752941 37.647059 0.752941 56.470588 2.258824 9.788235 0.752941 19.576471 1.505882 29.364706 3.011765 6.023529 0.752941 21.082353 4.517647 26.352941 0.752941 11.294118-8.282353-17.317647-9.035294-21.082353-9.788235-19.576471-2.258824-39.152941-4.517647-58.729412-5.270589-21.082353-3.011765-43.670588-3.764706-65.505882-3.764706z" fill="#FBE380" /><path d="M679.152941 768.752941c-37.647059 14.305882-71.529412 46.682353-79.058823 85.082353 5.270588-1.505882 9.788235-3.764706 14.305882-5.270588 10.541176-30.870588 33.882353-56.470588 62.494118-71.529412 0-3.011765 1.505882-5.270588 2.258823-8.282353zM209.317647 805.647059c3.764706 2.258824 8.282353 5.270588 12.8 7.529412 6.776471-50.447059 6.023529-102.4 3.764706-152.847059-2.258824 0.752941-3.764706 1.505882-6.023529 2.258823-4.517647 47.435294-9.035294 95.623529-10.541177 143.058824zM579.764706 760.470588c-29.364706 28.611765-36.894118 67.764706-36.141177 106.917647 4.517647-0.752941 9.035294-1.505882 12.8-2.258823 5.270588-32.376471 15.058824-66.258824 37.647059-90.352941 24.847059-25.6 60.988235-34.635294 95.62353-39.152942l2.258823-6.77647c-39.905882-2.258824-81.317647 1.505882-112.188235 31.623529z" fill="#FBC20E" /><path d="M157.364706 736.376471c0.752941 9.035294 4.517647 19.576471 10.541176 30.117647 58.729412 100.894118 460.047059 161.129412 503.717647 24.847058 1.505882-3.764706 2.258824-7.529412 3.764706-11.294117-114.447059 61.741176-401.317647 24.094118-518.023529-43.670588z" fill="#231F20" opacity=".27" /></svg>