<?xml version="1.0" standalone="no"?><!DOCTYPE svg PUBLIC "-//W3C//DTD SVG 1.1//EN" "http://www.w3.org/Graphics/SVG/1.1/DTD/svg11.dtd"><svg class="icon" width="200px" height="200.00px" viewBox="0 0 1024 1024" version="1.1" xmlns="http://www.w3.org/2000/svg"><path d="M237.176471 760.470588c-4.517647 9.788235-8.282353 18.823529-4.517647 30.870588 3.011765 12.047059 11.294118 21.835294 19.57647 30.870589 21.082353 23.341176 46.682353 42.164706 72.282353 60.988235 10.541176 7.529412 24.094118 15.811765 36.894118 11.294118 16.564706-5.270588 24.847059-30.117647 42.917647-29.364706 3.011765 0 6.776471 1.505882 9.788235 2.258823 30.117647 8.282353 64.752941-6.023529 79.811765-33.129411 0.752941-1.505882 1.505882-2.258824 1.505882-3.764706 0.752941-6.776471-6.776471-10.541176-13.552941-12.047059-76.8-20.329412-143.811765-77.552941-176.188235-150.588235-3.764706-8.282353-8.282353-17.317647-16.564706-19.576471-7.529412-1.505882-15.058824 3.011765-19.576471 8.282353-12.047059 14.305882-12.8 33.129412-14.305882 50.447059-1.505882 16.564706-7.529412 30.870588-14.305883 45.929411-0.752941 3.011765-2.258824 5.270588-3.764705 7.529412z" fill="#257F2D" /><path d="M810.917647 235.670588C752.941176 168.658824 636.235294 135.529412 564.705882 174.682353 503.717647 208.564706 463.058824 271.058824 425.411765 330.541176c-30.870588 48.188235-60.988235 97.129412-91.858824 145.317648-33.129412 51.952941-67.011765 109.176471-61.741176 170.164705 4.517647 55.717647 41.411765 103.152941 81.317647 141.552942 24.847059 23.341176 52.705882 45.176471 85.835294 52.705882 48.188235 11.294118 98.635294-9.035294 143.811765-29.364706 37.647059-16.564706 75.294118-33.129412 109.929411-54.211765 29.364706-17.317647 65.505882-67.764706 60.235294-103.905882-9.035294-60.988235-91.858824-28.611765-118.964705-70.776471 21.082353-21.082353 54.964706-34.635294 79.058823-55.717647 30.117647-26.352941 57.223529-56.470588 81.317647-88.094117 22.588235-29.364706 42.917647-61.741176 48.941177-97.882353 6.776471-39.152941-6.776471-75.294118-32.376471-104.658824z" fill="#D83E3E" /><path d="M700.235294 494.682353c39.152941-27.858824 76.8-57.976471 115.2-87.341177h0.752941c3.011765-4.517647 6.023529-9.788235 8.282353-14.305882-51.2-21.835294-102.4-42.164706-152.847059-63.247059-64-27.105882-128-53.458824-192.752941-77.552941L469.835294 263.529412c27.858824 12.047059 54.964706 23.341176 82.82353 34.635294-46.682353 26.352941-91.105882 60.235294-135.529412 91.105882-7.529412-3.011765-15.811765-6.023529-23.341177-9.035294l-6.77647 11.294118C493.929412 441.223529 606.117647 484.894118 719.811765 520.282353c4.517647-4.517647 9.788235-9.035294 14.305882-13.552941-11.294118-4.517647-22.588235-8.282353-33.882353-12.047059zM427.670588 393.788235c45.176471-28.611765 93.364706-55.717647 135.529412-88.847059-9.788235 43.670588-15.058824 90.352941-15.058824 135.529412-40.658824-15.058824-80.564706-30.870588-120.470588-46.682353z m144.564706-86.588235c30.870588 12.8 62.494118 25.6 93.364706 37.647059l15.811765 6.77647c-42.917647 27.858824-83.576471 59.482353-124.235294 89.6 4.517647-45.176471 9.035294-89.6 15.058823-134.023529z m-5.270588 140.047059c39.905882-30.870588 82.070588-58.729412 123.482353-87.341177-5.270588 42.164706-7.529412 87.341176-4.517647 130.258824-39.905882-13.552941-79.058824-27.858824-118.964706-42.917647z m136.282353-86.588235c33.882353 14.305882 68.517647 29.364706 102.4 43.670588-38.4 24.094118-76.8 50.447059-109.929412 81.317647 3.011765-42.164706 5.270588-83.576471 7.529412-124.988235zM652.047059 696.470588c-0.752941-2.258824-3.011765-3.764706-5.270588-3.764706-34.635294-25.6-68.517647-51.2-102.4-77.552941-51.2-39.152941-99.388235-81.317647-148.329412-122.729412 0-2.258824-2.258824-3.764706-4.517647-3.764705-14.305882-12.047059-28.611765-24.847059-43.670588-36.894118-2.258824 3.011765-3.764706 6.023529-6.02353 9.035294 12.047059 10.541176 24.094118 21.835294 36.894118 32.376471l-67.764706 18.070588c-2.258824 3.764706-4.517647 8.282353-6.776471 12.047059h0.752941l79.058824-20.329412c-9.035294 45.929412-22.588235 91.858824-28.611765 138.541176-24.847059-22.588235-49.694118-44.423529-74.541176-65.505882-2.258824 6.776471-4.517647 13.552941-6.02353 20.329412 25.6 23.341176 52.705882 45.929412 79.058824 67.764706l0.752941 0.752941c27.858824 23.341176 55.717647 45.929412 82.82353 68.517647 36.894118 30.870588 73.788235 61.741176 111.435294 91.858823 5.270588-2.258824 9.788235-3.764706 15.058823-6.023529-26.352941-21.082353-52.705882-42.164706-78.305882-63.247059 50.447059-15.811765 100.894118-30.870588 150.588235-48.188235-9.035294 30.870588-19.576471 61.741176-28.611765 92.611765 6.023529-3.011765 12.047059-5.270588 18.070589-8.282353 7.529412-25.6 13.552941-51.952941 21.082353-76.8 16.564706 12.8 33.882353 25.6 51.2 38.4 3.764706-3.011765 8.282353-6.776471 12.047058-10.541177-18.070588-16.564706-37.647059-31.623529-57.97647-46.682353zM393.788235 505.976471c40.658824 33.882353 81.317647 67.011765 121.976471 100.141176-25.6 10.541176-51.952941 19.576471-78.305882 27.105882-24.094118 6.776471-48.188235 9.035294-72.282353 12.8 15.811765-43.670588 21.835294-93.364706 28.611764-140.047058z m59.482353 221.364705C428.423529 706.258824 404.329412 685.176471 380.235294 662.588235c45.929412-8.282353 93.364706-24.847059 136.282353-42.917647-15.058824 41.411765-30.870588 82.070588-43.670588 123.482353-6.776471-5.270588-13.552941-10.541176-19.576471-15.811765z m31.62353 16.564706c15.811765-42.164706 29.364706-84.329412 43.670588-127.247058l2.258823 2.258823c33.129412 27.858824 67.011765 55.717647 101.647059 82.823529-49.694118 12.8-98.635294 27.105882-147.57647 42.164706z" fill="#FBC20E" /><path d="M710.776471 193.505882c-43.670588-15.058824-91.858824-13.552941-134.776471 3.011765-9.035294 3.764706-18.823529 8.282353-24.847059 16.564706-6.023529 7.529412-8.282353 19.576471-3.011765 27.858823 3.764706 6.023529 9.788235 9.035294 16.564706 12.047059 21.835294 9.788235 45.176471 17.317647 68.517647 13.552941 12.047059-2.258824 24.094118-7.529412 36.141177-10.541176 24.094118-5.270588 51.2 2.258824 69.270588 18.823529 9.035294 8.282353 15.811765 18.823529 24.847059 27.105883 29.364706 27.858824 67.764706 3.011765 45.176471-32.376471-23.341176-35.388235-58.729412-62.494118-97.882353-76.047059zM796.611765 335.811765c-2.258824 7.529412 0 15.811765 6.023529 21.082353 3.764706 3.011765 8.282353 4.517647 12.8 4.517647 4.517647-0.752941 9.035294-3.011765 11.294118-6.776471 3.011765-3.764706 3.764706-8.282353 3.011764-12.8-2.258824-18.823529-27.105882-24.847059-33.129411-6.023529z" fill="#EB5959" /><path d="M702.494118 205.552941c-27.858824-9.788235-58.729412-11.294118-85.835294-1.505882-6.023529 2.258824-12.8 6.023529-16.564706 11.294117-3.764706 6.023529-3.764706 14.305882 1.505882 18.82353 6.023529 4.517647 14.305882 2.258824 21.835294-0.752941 15.058824-6.023529 30.870588-11.294118 47.435294-12.8 16.564706-1.505882 33.882353 1.505882 47.435294 10.541176 6.776471 4.517647 13.552941 11.294118 21.835294 12.8 3.764706 0.752941 7.529412 0 10.541177 1.505883 6.776471 2.258824 10.541176 9.035294 15.058823 14.305882 3.764706 6.023529 10.541176 11.294118 17.317648 10.541176 18.823529-3.011765-21.835294-33.882353-23.341177-34.635294-18.070588-12.8-36.894118-23.341176-57.223529-30.117647zM791.341176 282.352941c-1.505882 1.505882-1.505882 3.764706-1.505882 6.02353 0.752941 2.258824 2.258824 4.517647 4.517647 5.270588 2.258824 0.752941 4.517647 0.752941 6.776471-0.752941 1.505882-0.752941 3.011765-2.258824 3.764706-3.764706 0.752941-1.505882 0.752941-3.764706 0-5.270588-0.752941-1.505882-2.258824-3.011765-3.764706-3.764706-3.011765-1.505882-7.529412-0.752941-9.788236 2.258823zM813.176471 334.305882c-2.258824 2.258824-3.011765 6.023529-0.752942 9.035294 2.258824 3.011765 6.023529 3.011765 9.035295 1.505883 1.505882-1.505882 2.258824-3.764706 2.258823-5.270588-1.505882-5.270588-6.776471-9.035294-10.541176-5.270589z" fill="#F07878" /><path d="M586.541176 384c14.305882-9.788235 28.611765-20.329412 42.164706-30.117647-6.023529 4.517647-27.858824-14.305882-35.388235-10.541177-4.517647 3.011765-6.023529 33.882353-6.776471 40.658824zM622.682353 436.705882c4.517647 1.505882 9.035294 3.764706 13.552941 5.270589 7.529412 3.011765 14.305882 5.270588 21.835294 7.529411-3.011765-0.752941 7.529412-41.411765 3.011765-45.17647-13.552941 8.282353-26.352941 21.835294-38.4 32.37647zM719.811765 440.470588c16.564706-10.541176 31.623529-21.835294 46.682353-33.882353-8.282353-3.764706-36.894118-21.082353-42.917647-13.552941-4.517647 5.270588 0 46.682353-3.764706 47.435294zM476.611765 391.529412c15.058824 6.023529 30.117647 12.8 45.929411 18.823529-1.505882-0.752941 0-22.588235 0-25.6 0-4.517647 3.764706-18.823529-1.505882-21.835294-6.776471-3.011765-37.647059 24.094118-44.423529 28.611765zM444.988235 337.317647c11.294118-7.529412 21.835294-15.811765 33.882353-22.588235 7.529412-4.517647 15.811765-9.035294 20.329412-16.564706-4.517647-3.011765-12.8-5.270588-18.070588-6.776471-8.282353-1.505882-7.529412 0-12.8 7.529412-3.764706 6.023529-8.282353 12.8-12.047059 18.823529-3.011765 6.023529-6.776471 16.564706-11.294118 19.576471zM397.552941 606.117647l64-6.776471-54.211765-52.705882zM475.858824 657.317647l-51.952942 18.823529 33.129412 30.870589zM541.364706 655.058824l-27.858824 54.964705 76.8-21.835294zM600.847059 745.411765l-60.988235 20.329411 39.905882 36.894118zM350.870588 532.329412l-54.211764 20.329412 34.635294 32.37647z" fill="#EB5959" /><path d="M287.623529 641.505882c10.541176 64.752941 43.670588 121.976471 103.905883 152.094118 2.258824 0.752941 4.517647-2.258824 2.258823-3.764706-53.458824-32.376471-85.082353-90.352941-100.894117-149.082353-1.505882-3.011765-6.023529-3.011765-5.270589 0.752941zM429.929412 814.682353c13.552941 8.282353 27.858824 13.552941 43.670588 14.305882 3.011765 0 3.011765-3.764706 0-3.764706-15.058824-2.258824-29.364706-6.023529-43.670588-11.294117 0-1.505882-0.752941 0 0 0.752941zM425.411765 801.129412c6.776471 2.258824 12.047059 5.270588 18.070588 9.035294 1.505882 1.505882 3.011765-1.505882 1.505882-2.258824-5.270588-4.517647-12.047059-8.282353-18.823529-9.788235-1.505882-0.752941-3.011765 2.258824-0.752941 3.011765zM405.835294 780.047059c3.764706 1.505882 6.776471 3.764706 10.541177 5.270588 1.505882 0.752941 2.258824-1.505882 0.752941-2.258823-3.764706-1.505882-6.776471-3.764706-10.541177-5.270589-1.505882-0.752941-2.258824 1.505882-0.752941 2.258824z" fill="#BA2B2B" /><path d="M315.482353 658.070588c4.517647 25.6 18.823529 52.705882 36.141176 71.529412 2.258824 2.258824 6.023529 0 4.517647-3.011765-6.776471-11.294118-13.552941-22.588235-18.823529-34.635294-5.270588-12.047059-9.035294-24.847059-13.552941-36.894117-1.505882-3.764706-9.035294-1.505882-8.282353 3.011764zM365.176471 744.658824c3.011765 1.505882 6.023529 3.764706 9.788235 5.270588 2.258824 1.505882 6.023529-1.505882 3.764706-3.764706-2.258824-3.011765-4.517647-6.023529-6.776471-8.282353-4.517647-6.023529-12.8 3.764706-6.77647 6.776471zM669.364706 518.023529c-25.6 23.341176-51.952941 44.423529-80.564706 64.752942-1.505882 0.752941 0 3.011765 1.505882 2.258823C621.176471 571.482353 651.294118 550.4 676.141176 527.058824c5.270588-5.270588-1.505882-13.552941-6.77647-9.035295zM606.117647 595.576471c-4.517647 1.505882-8.282353 3.764706-12.047059 7.529411-1.505882 0.752941 0 3.764706 1.505883 3.011765 5.270588-1.505882 9.035294-3.011765 13.552941-6.023529 2.258824-2.258824 0-6.023529-3.011765-4.517647zM707.011765 714.541176c-0.752941 1.505882-1.505882 2.258824-2.258824 3.011765-1.505882 1.505882 1.505882 4.517647 3.011765 3.011765 0.752941-0.752941 1.505882-2.258824 3.011765-3.011765 2.258824-2.258824-1.505882-6.023529-3.764706-3.011765zM396.047059 417.882353c-6.023529 7.529412-9.035294 17.317647-11.294118 26.352941-0.752941 2.258824 2.258824 4.517647 3.764706 2.258824 5.270588-8.282353 10.541176-17.317647 12.047059-27.105883 0-2.258824-3.011765-3.011765-4.517647-1.505882z" fill="#BA2B2B" /><path d="M700.988235 629.458824c11.294118 1.505882 23.341176 4.517647 29.364706 13.552941 3.764706 6.023529 3.764706 14.305882 2.258824 21.082353-1.505882 7.529412-3.764706 14.305882-5.270589 21.835294-6.776471 6.023529-19.576471 3.764706-23.341176-5.270588-1.505882-3.764706-1.505882-7.529412-2.258824-10.541177-1.505882-8.282353-6.776471-15.811765-14.305882-18.070588-3.011765-0.752941-6.023529-0.752941-9.035294-0.752941-9.788235-0.752941-49.694118-9.035294-37.647059-26.352942 9.035294-12.047059 48.188235 3.011765 60.235294 4.517648z" fill="#EB5959" /><path d="M277.835294 749.176471c12.047059 24.094118 25.6 45.176471 44.42353 64.752941 18.070588 18.823529 35.388235 40.658824 57.97647 53.458823 3.011765 1.505882 6.776471-1.505882 4.517647-4.517647-16.564706-20.329412-36.894118-35.388235-53.458823-56.470588-15.811765-20.329412-31.623529-40.658824-47.435294-61.741176-3.011765-2.258824-8.282353 1.505882-6.02353 4.517647zM366.682353 825.976471c6.023529 5.270588 11.294118 9.788235 17.317647 14.305882 2.258824 1.505882 5.270588-1.505882 3.011765-3.011765-5.270588-5.270588-11.294118-10.541176-17.317647-15.058823-2.258824-3.011765-5.270588 1.505882-3.011765 3.764706zM417.129412 847.811765c7.529412 6.776471 15.058824 10.541176 24.847059 12.047059 2.258824 0 3.764706-3.764706 0.752941-4.517648-8.282353-3.011765-16.564706-6.023529-23.341177-11.294117-2.258824-1.505882-4.517647 2.258824-2.258823 3.764706zM399.058824 856.094118c3.011765 1.505882 5.270588 3.011765 9.035294 3.011764 4.517647 0 5.270588-5.270588 1.505882-7.529411-1.505882-0.752941-2.258824-1.505882-3.764706-3.011765-5.270588-5.270588-12.8 4.517647-6.77647 7.529412zM457.788235 853.082353c0.752941 0.752941 2.258824 0.752941 3.011765 1.505882 2.258824 0.752941 3.011765-2.258824 1.505882-3.011764-0.752941-0.752941-2.258824-0.752941-3.011764-1.505883-2.258824-0.752941-3.011765 2.258824-1.505883 3.011765zM339.576471 798.117647c-3.764706-7.529412-9.035294-15.058824-15.058824-21.082353-2.258824-2.258824-5.270588 0.752941-3.764706 3.011765 5.270588 7.529412 10.541176 13.552941 17.317647 19.57647 0.752941 0.752941 2.258824 0 1.505883-1.505882zM266.541176 687.435294c-3.011765 6.776471-1.505882 15.058824 0 21.835294 2.258824 6.776471 4.517647 16.564706 9.035295 21.835294 0.752941 0.752941 3.011765 0 3.011764-1.505882-0.752941-3.011765-2.258824-6.023529-3.011764-9.035294-1.505882-4.517647-2.258824-8.282353-3.011765-12.8-0.752941-6.776471-1.505882-14.305882-3.764706-21.082353-0.752941-0.752941-1.505882 0-2.258824 0.752941zM304.941176 751.435294c0.752941 0.752941 1.505882 1.505882 1.505883 2.258824 0.752941 0.752941 2.258824 0 1.505882-1.505883-0.752941-0.752941-1.505882-1.505882-1.505882-2.258823-0.752941-1.505882-2.258824 0-1.505883 1.505882zM289.882353 735.623529c0.752941 0.752941 1.505882-1.505882 0.752941-1.505882-0.752941-0.752941-1.505882 0.752941-0.752941 1.505882zM265.788235 758.211765c1.505882 6.776471 3.764706 12.8 6.776471 19.57647 0.752941 2.258824 4.517647 0.752941 3.764706-1.505882-2.258824-6.776471-4.517647-12.8-7.529412-18.823529 0-1.505882-3.764706-0.752941-3.011765 0.752941z" fill="#216325" /><path d="M361.411765 894.494118c9.788235-3.011765 16.564706-12.047059 23.341176-19.576471-30.117647-7.529412-59.482353-18.823529-82.823529-38.4-29.364706-24.094118-45.929412-56.470588-57.22353-91.105882-1.505882 3.011765-2.258824 5.270588-3.764706 8.282353-1.505882 2.258824-2.258824 4.517647-3.764705 6.77647-4.517647 9.788235-8.282353 18.823529-4.517647 30.870588 3.011765 12.047059 11.294118 21.835294 19.57647 30.870589 21.082353 23.341176 46.682353 42.164706 72.282353 60.988235 11.294118 7.529412 24.094118 15.058824 36.894118 11.294118z" fill="#216325" /><path d="M361.411765 894.494118c9.788235-3.011765 16.564706-12.047059 23.341176-19.576471-30.117647-7.529412-59.482353-18.823529-82.823529-38.4-29.364706-24.094118-45.929412-56.470588-57.22353-91.105882-1.505882 3.011765-2.258824 5.270588-3.764706 8.282353-1.505882 2.258824-2.258824 4.517647-3.764705 6.77647-4.517647 9.788235-8.282353 18.823529-4.517647 30.870588 3.011765 12.047059 11.294118 21.835294 19.57647 30.870589 21.082353 23.341176 46.682353 42.164706 72.282353 60.988235 11.294118 7.529412 24.094118 15.058824 36.894118 11.294118z" fill="#216325" /></svg>