<?xml version="1.0" standalone="no"?><!DOCTYPE svg PUBLIC "-//W3C//DTD SVG 1.1//EN" "http://www.w3.org/Graphics/SVG/1.1/DTD/svg11.dtd"><svg class="icon" width="200px" height="200.00px" viewBox="0 0 1024 1024" version="1.1" xmlns="http://www.w3.org/2000/svg"><path d="M284.611765 738.635294c16.564706 0 33.129412 0 46.682353-2.258823 5.270588-0.752941 10.541176-0.752941 15.058823-0.752942h6.02353c4.517647-0.752941 9.035294-0.752941 13.552941-0.752941 3.764706 0 6.023529 0.752941 6.77647 1.505883 3.011765 4.517647 4.517647 15.058824 5.270589 24.847058l2.258823 18.070589c3.764706 21.082353 9.788235 44.423529 28.611765 63.247058 20.329412 21.082353 51.952941 30.870588 94.870588 30.870589h6.023529c48.188235-0.752941 82.070588-11.294118 101.647059-30.870589 18.823529-18.823529 24.847059-42.917647 28.611765-63.247058 1.505882-6.023529 1.505882-12.047059 2.258824-18.070589 0.752941-9.035294 2.258824-20.329412 5.270588-24.847058 0 0 1.505882-0.752941 6.77647-0.752942 3.764706 0 8.282353 0.752941 13.552942 0.752942 2.258824 0 3.764706 0.752941 6.023529 0.752941 4.517647 0.752941 9.035294 0.752941 14.305882 1.505882 13.552941 1.505882 30.870588 3.764706 47.435294 3.764706 35.388235 0 58.729412-9.788235 73.035295-30.117647 21.835294-31.623529 6.776471-73.788235-38.4-106.164706-7.529412-5.270588-14.305882-10.541176-21.835295-15.811765h3.011765c26.352941 0 44.423529-6.776471 53.458824-20.329411 5.270588-7.529412 10.541176-21.082353 3.011764-40.658824-12.8-33.129412-42.164706-56.470588-66.258823-75.294118l-2.258824-2.258823-9.035294-6.776471c9.035294-3.011765 16.564706-7.529412 22.588235-14.305882 11.294118-12.047059 25.6-38.4-6.023529-82.070588-14.305882-19.576471-32.376471-36.894118-49.694118-53.458824-6.776471-6.776471-13.552941-12.8-20.329411-19.57647-18.070588-18.070588-36.141176-39.152941-53.458824-58.729412-4.517647-5.270588-8.282353-9.788235-12.8-14.305883-3.011765-3.764706-6.776471-7.529412-9.788235-11.294117-17.317647-21.082353-36.894118-44.423529-70.02353-52.705883-6.776471-1.505882-12.8-2.258824-19.57647-2.258823-37.647059 0-64 26.352941-85.835294 51.2-18.823529 21.082353-39.905882 42.164706-60.235294 61.741176-31.623529 30.870588-64 63.247059-91.105883 99.388236-32.376471 43.670588-18.070588 70.023529-6.023529 82.070588 6.023529 6.776471 13.552941 11.294118 22.588235 14.305882l-9.035294 6.776471-2.258824 2.258823c-24.094118 18.823529-54.211765 42.164706-66.258823 75.294118-7.529412 19.576471-2.258824 33.129412 3.011765 40.658824 9.788235 13.552941 27.105882 20.329412 53.458823 20.329411h3.011765c-7.529412 5.270588-14.305882 10.541176-21.835294 15.058824-45.176471 32.376471-60.235294 72.282353-38.4 103.905882 13.552941 21.082353 36.894118 29.364706 72.282353 29.364706z" fill="#FFFFFF" /><path d="M756.705882 624.188235c-15.811765-11.294118-31.623529-21.835294-46.682353-33.129411-12.8-9.035294-30.870588-20.329412-39.152941-34.635295 34.635294 8.282353 135.529412 30.870588 116.705883-18.823529-10.541176-27.858824-39.152941-49.694118-61.741177-67.764706-13.552941-11.294118-27.858824-22.588235-42.164706-32.37647-8.282353-5.270588-21.082353-9.788235-29.364706-16.564706 27.105882 2.258824 64.752941 14.305882 83.576471-5.270589 15.058824-15.811765 3.011765-39.152941-8.282353-53.458823-18.823529-25.6-45.176471-47.435294-67.764706-70.02353-23.341176-23.341176-45.176471-49.694118-67.011765-74.541176-20.329412-22.588235-36.894118-49.694118-68.517647-57.976471-35.388235-9.035294-61.741176 17.317647-83.57647 42.164706-48.941176 54.211765-106.917647 100.894118-150.588236 159.62353-11.294118 15.058824-23.341176 37.647059-8.282352 53.458823 18.823529 20.329412 56.470588 7.529412 83.57647 5.270588-8.282353 6.776471-21.082353 11.294118-29.364706 16.564706-15.058824 9.035294-28.611765 21.082353-42.164706 32.376471-22.588235 18.070588-51.2 39.152941-61.741176 67.764706-19.576471 49.694118 81.317647 27.105882 115.952941 19.57647-8.282353 15.058824-26.352941 25.6-39.152941 34.635295-15.811765 11.294118-31.623529 21.835294-46.682353 33.129411-21.082353 15.058824-51.952941 47.435294-33.129412 75.294118 21.835294 31.623529 82.070588 18.070588 113.694118 15.058823 15.811765-1.505882 36.141176-6.023529 46.682353 9.035295 9.035294 13.552941 8.282353 35.388235 11.294117 51.2 3.764706 18.823529 8.282353 37.647059 22.588236 51.952941 21.082353 21.082353 56.470588 24.847059 85.082353 24.094117 26.352941-0.752941 67.011765-4.517647 85.835294-24.094117 14.305882-14.305882 18.823529-33.129412 22.588235-51.952941 3.011765-15.811765 1.505882-37.647059 11.294118-51.2 10.541176-15.058824 30.870588-10.541176 46.682353-9.035295 30.870588 3.011765 92.611765 16.564706 113.694117-15.058823 18.070588-27.858824-12.8-60.235294-33.882353-75.294118z" fill="#D49708" /><path d="M741.647059 658.823529c-9.788235-20.329412-27.858824-37.647059-45.176471-51.952941-20.329412-16.564706-45.929412-29.364706-61.741176-51.2-15.811765-22.588235 16.564706-19.576471 24.847059-18.823529 6.776471 0.752941 13.552941 2.258824 21.082353 3.011765 12.8 2.258824 27.105882 3.764706 39.152941-2.258824 29.364706-15.811765-9.788235-54.964706-23.341177-64.752941-13.552941-9.788235-27.858824-16.564706-42.164706-24.847059-8.282353-4.517647-15.811765-9.788235-22.588235-15.811765-6.776471-6.023529-9.788235-20.329412 1.505882-22.588235 4.517647-0.752941 9.035294-0.752941 13.552942-1.505882 12.8-1.505882 24.847059-2.258824 34.635294-12.047059 10.541176-10.541176 2.258824-27.858824-3.011765-37.647059-22.588235-40.658824-57.223529-72.282353-85.835294-106.917647-18.823529-22.588235-54.964706-74.541176-90.352941-63.247059-0.752941 0-1.505882 0.752941-2.258824 1.505882-12.8 5.270588-24.094118 17.317647-33.129412 26.352942-19.576471 19.576471-39.905882 38.4-57.97647 58.729411-17.317647 19.576471-34.635294 38.4-51.2 57.976471-9.035294 10.541176-26.352941 27.105882-20.329412 42.917647 4.517647 12.047059 13.552941 16.564706 24.847059 18.823529 11.294118 2.258824 48.941176-1.505882 44.423529 18.82353-3.764706 15.058824-24.094118 28.611765-36.141176 36.894118-13.552941 10.541176-27.858824 20.329412-40.658824 30.870588-9.035294 7.529412-33.129412 19.576471-35.388235 33.129412-3.011765 14.305882 11.294118 21.082353 24.094118 21.082352 12.8 0.752941 25.6 0 38.4 0 13.552941 0 42.164706-3.011765 25.6 18.82353-17.317647 21.835294-42.164706 37.647059-62.494118 55.717647-15.058824 13.552941-58.729412 51.2-28.611765 70.776471 21.082353 14.305882 59.482353 0.752941 82.82353 1.505882 30.117647 1.505882 42.917647 18.823529 48.941176 46.682353 5.270588 23.341176 7.529412 45.929412 21.835294 66.258823 19.576471 27.105882 57.976471 23.341176 90.352941 19.576471 38.4-5.270588 59.482353-19.576471 68.517648-54.964706 4.517647-18.823529 5.270588-37.647059 11.294117-56.470588 11.294118-33.129412 46.682353-13.552941 69.270588-5.270588 15.811765 5.270588 39.152941 12.047059 54.964706 3.011764 18.070588-9.035294 9.035294-27.858824 2.258824-42.164706z" fill="#667A45" /><path d="M513.505882 270.305882c0 8.282353-6.776471 15.811765-15.811764 15.811765-8.282353 0-15.811765-6.776471-15.811765-15.811765 0-8.282353 6.776471-15.811765 15.811765-15.811764 9.035294 0 15.811765 7.529412 15.811764 15.811764zM592.564706 353.129412c0 8.282353-6.776471 15.811765-15.811765 15.811764-8.282353 0-15.811765-6.776471-15.811765-15.811764 0-8.282353 6.776471-15.811765 15.811765-15.811765 9.035294 0.752941 15.811765 7.529412 15.811765 15.811765zM464.564706 349.364706c0 8.282353-6.776471 15.811765-15.811765 15.811765-8.282353 0-15.811765-6.776471-15.811765-15.811765 0-8.282353 6.776471-15.811765 15.811765-15.811765 9.035294 0.752941 15.811765 7.529412 15.811765 15.811765zM423.152941 492.423529c0 8.282353-6.776471 15.811765-15.811765 15.811765-8.282353 0-15.811765-6.776471-15.811764-15.811765 0-8.282353 6.776471-15.811765 15.811764-15.811764 9.035294 0.752941 15.811765 7.529412 15.811765 15.811764zM521.035294 424.658824c0 8.282353-6.776471 15.811765-15.811765 15.811764-8.282353 0-15.811765-6.776471-15.811764-15.811764 0-8.282353 6.776471-15.811765 15.811764-15.811765 9.035294 0.752941 15.811765 7.529412 15.811765 15.811765z" fill="#F8E8D7" /><path d="M585.035294 488.658824m-15.811765 0a15.811765 15.811765 0 1 0 31.62353 0 15.811765 15.811765 0 1 0-31.62353 0Z" fill="#F8E8D7" /><path d="M509.741176 557.176471c0 8.282353-6.776471 15.811765-15.811764 15.811764-8.282353 0-15.811765-6.776471-15.811765-15.811764 0-8.282353 6.776471-15.811765 15.811765-15.811765 9.035294 0 15.811765 6.776471 15.811764 15.811765zM419.388235 628.705882c0 8.282353-6.776471 15.811765-15.811764 15.811765-8.282353 0-15.811765-6.776471-15.811765-15.811765 0-8.282353 6.776471-15.811765 15.811765-15.811764 9.035294 0 15.811765 6.776471 15.811764 15.811764zM630.964706 624.941176c0 8.282353-6.776471 15.811765-15.811765 15.811765-8.282353 0-15.811765-6.776471-15.811765-15.811765 0-8.282353 6.776471-15.811765 15.811765-15.811764 8.282353 0 15.811765 6.776471 15.811765 15.811764zM513.505882 662.588235c0 8.282353-6.776471 15.811765-15.811764 15.811765-8.282353 0-15.811765-6.776471-15.811765-15.811765 0-8.282353 6.776471-15.811765 15.811765-15.811764 9.035294 0 15.811765 6.776471 15.811764 15.811764zM547.388235 749.176471c0 8.282353-6.776471 15.811765-15.811764 15.811764-8.282353 0-15.811765-6.776471-15.811765-15.811764 0-8.282353 6.776471-15.811765 15.811765-15.811765 9.035294 0 15.811765 7.529412 15.811764 15.811765z" fill="#F8E8D7" /></svg>