<?xml version="1.0" standalone="no"?><!DOCTYPE svg PUBLIC "-//W3C//DTD SVG 1.1//EN" "http://www.w3.org/Graphics/SVG/1.1/DTD/svg11.dtd"><svg class="icon" width="200px" height="200.00px" viewBox="0 0 1024 1024" version="1.1" xmlns="http://www.w3.org/2000/svg"><path d="M777.788235 465.317647c-6.776471-8.282353-17.317647-14.305882-26.352941-19.576471-40.658824-23.341176-81.317647-41.411765-125.741176-53.458823-13.552941-3.764706-26.352941-6.776471-39.152942-9.788235 6.023529-2.258824 11.294118-4.517647 16.564706-7.529412 50.447059-28.611765 67.011765-99.388235 44.42353-152.847059-45.929412-106.164706-186.729412-134.023529-246.964706-26.352941-19.576471 34.635294-22.588235 77.552941-9.788235 115.2 13.552941 38.4 45.929412 70.023529 85.082353 80.564706 4.517647 0.752941 8.282353 2.258824 12.8 2.258823-10.541176 5.270588-20.329412 11.294118-30.870589 17.317647-41.411765 25.6-82.070588 51.2-120.470588 81.317647l-13.552941 11.294118c-4.517647 4.517647-8.282353 9.035294-11.294118 14.305882-6.023529 10.541176-7.529412 24.094118-1.505882 33.882353 10.541176 16.564706 33.882353 15.811765 53.458823 12.8 16.564706-2.258824 48.941176-13.552941 64-6.023529 15.811765 8.282353 17.317647 33.882353 17.317647 48.188235 0 65.505882 0 131.764706-0.752941 197.270588 0 19.576471 1.505882 42.917647 18.070589 54.211765 15.058824 10.541176 36.894118 5.270588 50.447058-6.77647 13.552941-12.047059 21.082353-29.364706 28.611765-45.929412 10.541176-24.847059 21.082353-49.694118 31.623529-75.294118 9.788235-6.776471 22.588235-4.517647 33.129412 1.505883 9.788235 6.023529 17.317647 15.811765 24.094118 24.847058l31.623529 42.917647c6.023529 7.529412 11.294118 15.811765 19.576471 20.329412 9.788235 6.023529 21.835294 7.529412 33.882353 7.529412 5.270588 0 11.294118-0.752941 15.058823-3.764706 7.529412-6.023529 7.529412-17.317647 6.02353-26.352941C724.329412 715.294118 682.164706 640 664.847059 557.929412c-2.258824-11.294118-3.011765-26.352941 6.023529-33.129412 5.270588-3.764706 11.294118-3.764706 17.317647-4.517647 16.564706-0.752941 33.129412-2.258824 49.694118-3.011765 18.823529-1.505882 40.658824-5.270588 47.435294-22.588235 3.764706-8.282353 0-20.329412-7.529412-29.364706z" fill="#E9922E" /><path d="M467.576471 246.964706c12.047059-6.023529 2.258824-24.094118-9.035295-18.070588-12.047059 6.023529-3.011765 24.094118 9.035295 18.070588zM574.494118 230.4c12.8-6.776471 3.011765-27.105882-10.541177-20.329412-12.8 6.776471-2.258824 27.105882 10.541177 20.329412zM450.258824 306.447059c39.152941 62.494118 124.988235 27.858824 158.870588-22.588235 1.505882-3.011765-1.505882-5.270588-3.764706-3.764706-23.341176 18.823529-42.164706 39.152941-73.035294 43.670588-27.858824 4.517647-55.717647-1.505882-76.047059-21.835294-3.011765-2.258824-8.282353 0.752941-6.023529 4.517647zM739.388235 489.411765c2.258824-15.811765 4.517647-31.623529 5.270589-47.435294-4.517647-2.258824-9.035294-4.517647-13.552942-7.529412-2.258824 15.058824-3.764706 29.364706-6.023529 44.423529-2.258824 13.552941-5.270588 27.858824-7.529412 41.411765 6.023529 0 11.294118-0.752941 17.317647-0.752941 2.258824-10.541176 3.011765-20.329412 4.517647-30.117647zM717.552941 475.105882c2.258824-14.305882 5.270588-28.611765 7.529412-42.917647-4.517647-2.258824-9.788235-5.270588-14.305882-7.529411-3.011765 13.552941-4.517647 26.352941-6.776471 39.152941-3.011765 18.823529-8.282353 38.4-11.294118 57.97647 5.270588 0 11.294118-0.752941 16.564706-0.752941 3.764706-15.811765 6.023529-31.623529 8.282353-45.929412zM400.564706 557.929412c6.776471-0.752941 12.8-1.505882 18.070588-0.752941-8.282353-32.376471-23.341176-65.505882-37.647059-95.62353-3.011765 2.258824-6.776471 4.517647-9.788235 6.776471 10.541176 29.364706 18.823529 60.988235 29.364706 89.6zM350.117647 484.141176c6.023529 26.352941 12.8 54.211765 23.341177 79.811765 6.023529-1.505882 12.8-3.011765 19.57647-4.517647-8.282353-27.858824-21.835294-56.470588-33.882353-82.070588l-9.035294 6.77647z" fill="#FFFFFF" /><path d="M491.670588 385.505882c2.258824 12.047059 4.517647 24.094118 7.529412 36.141177 1.505882 8.282353 12.047059 11.294118 18.070588 4.517647 6.776471-7.529412 13.552941-15.811765 20.329412-24.094118 3.764706-4.517647 9.788235-5.270588 14.305882-1.505882 6.023529 4.517647 12.8 8.282353 19.576471 12.047059 6.776471 3.764706 15.811765-1.505882 15.058823-9.788236V376.470588c0-8.282353-7.529412-13.552941-15.058823-9.788235-10.541176 5.270588-22.588235 10.541176-33.129412 10.541176-3.764706 0-21.082353-2.258824-34.635294-4.517647-7.529412-0.752941-13.552941 5.270588-12.047059 12.8zM548.894118 499.952941c15.811765-7.529412 3.011765-32.376471-12.047059-24.094117-15.811765 7.529412-3.764706 31.623529 12.047059 24.094117zM556.423529 557.929412c16.564706-8.282353 3.764706-34.635294-13.552941-26.352941-16.564706 9.035294-3.764706 35.388235 13.552941 26.352941zM563.952941 622.682353c6.776471-3.764706 10.541176-12.8 6.776471-20.329412-3.764706-6.776471-12.8-10.541176-20.329412-6.77647-6.776471 3.764706-10.541176 12.8-6.776471 20.329411 3.764706 7.529412 12.8 10.541176 20.329412 6.776471z" fill="#D83E3E" /><path d="M520.282353 141.552941c-44.423529-5.270588-87.341176 26.352941-106.164706 64.752941-19.576471 39.152941-14.305882 88.847059 7.529412 126.494118 3.011765 5.270588 9.788235 1.505882 7.529412-3.764706-13.552941-38.4-15.811765-76.047059 2.258823-112.941176 18.070588-37.647059 51.2-54.211765 89.6-64.752942 5.270588-1.505882 4.517647-9.035294-0.752941-9.788235z" fill="#FFFFFF" /><path d="M502.964706 192c4.517647-2.258824 0.752941-9.035294-3.011765-6.776471-4.517647 2.258824-1.505882 9.035294 3.011765 6.776471zM530.070588 179.952941c4.517647-2.258824 0.752941-9.035294-3.764706-6.77647-4.517647 2.258824-0.752941 9.035294 3.764706 6.77647zM563.2 156.611765s-0.752941 0-0.752941-0.752941c-3.764706-1.505882-6.776471 3.011765-5.270588 6.023529 1.505882 3.011765 7.529412 3.011765 8.282353-0.752941v-1.505883c0-0.752941-0.752941-2.258824-2.258824-3.011764zM605.364706 199.529412c3.764706-2.258824 0.752941-8.282353-3.011765-6.02353-3.764706 1.505882-0.752941 8.282353 3.011765 6.02353zM465.317647 442.729412c4.517647-2.258824 0.752941-9.788235-3.764706-7.529412-4.517647 2.258824-0.752941 9.788235 3.764706 7.529412zM426.164706 472.847059c3.011765-1.505882 0.752941-6.776471-2.258824-5.270588-3.764706 1.505882-0.752941 6.776471 2.258824 5.270588zM471.341176 477.364706c3.764706-2.258824 0.752941-8.282353-3.011764-6.02353-3.764706 2.258824-0.752941 8.282353 3.011764 6.02353zM465.317647 530.070588c3.011765-1.505882 0.752941-6.023529-2.258823-4.517647-3.011765 1.505882-0.752941 6.023529 2.258823 4.517647zM503.717647 550.4c0 0.752941 0.752941 1.505882 1.505882 2.258824 3.011765 3.011765 8.282353 0 7.529412-3.764706 0-0.752941-0.752941-1.505882-0.752941-3.011765-3.764706-4.517647-10.541176-0.752941-8.282353 4.517647zM491.670588 616.658824c7.529412-3.764706 1.505882-16.564706-6.023529-12.047059-8.282353 3.764706-1.505882 15.811765 6.023529 12.047059zM508.235294 657.317647c4.517647-2.258824 0.752941-8.282353-3.011765-6.776471-4.517647 2.258824-0.752941 8.282353 3.011765 6.776471zM492.423529 705.505882c3.764706-2.258824 0.752941-7.529412-3.011764-6.023529-3.764706 2.258824-0.752941 8.282353 3.011764 6.023529zM489.411765 772.517647c3.011765-1.505882 0.752941-6.776471-3.011765-5.270588-3.011765 1.505882 0 6.776471 3.011765 5.270588zM488.658824 823.717647c3.011765-1.505882 0.752941-6.776471-2.258824-5.270588-3.764706 1.505882-0.752941 6.776471 2.258824 5.270588zM525.552941 761.976471c3.011765-1.505882 0.752941-6.776471-2.258823-5.270589-3.764706 2.258824-1.505882 6.776471 2.258823 5.270589zM582.776471 688.941176c6.023529-3.011765 1.505882-12.047059-4.517647-9.035294-6.023529 2.258824-1.505882 12.047059 4.517647 9.035294zM580.517647 443.482353c7.529412-3.764706 1.505882-15.811765-6.023529-12.047059-8.282353 3.764706-2.258824 15.811765 6.023529 12.047059zM528.564706 444.988235c4.517647-2.258824 0.752941-9.788235-3.764706-7.529411-4.517647 3.011765-0.752941 9.788235 3.764706 7.529411zM630.964706 408.847059c0.752941 0 0.752941-0.752941 1.505882-0.752941 3.011765-1.505882 0.752941-6.023529-2.258823-4.517647-0.752941 0-0.752941 0.752941-1.505883 0.752941-3.764706 1.505882-0.752941 6.776471 2.258824 4.517647zM666.352941 426.164706c1.505882-0.752941 0-3.011765-0.752941-2.258824-1.505882 0.752941 0 3.011765 0.752941 2.258824zM332.8 529.317647c0.752941-0.752941 1.505882-0.752941 2.258824-1.505882 2.258824-3.011765 0.752941-6.776471-3.764706-6.776471-0.752941 0-1.505882 0.752941-3.011765 0.752941-4.517647 2.258824 0 11.294118 4.517647 7.529412zM346.352941 551.905882c9.035294-4.517647 1.505882-18.823529-6.77647-13.552941-9.035294 4.517647-2.258824 18.070588 6.77647 13.552941zM645.270588 437.458824c0 0.752941 0.752941 0.752941 0.752941 1.505882 3.011765 5.270588 11.294118 1.505882 9.035295-4.517647 0-0.752941-0.752941-0.752941-0.752942-1.505883-2.258824-6.023529-12.047059-0.752941-9.035294 4.517648zM660.329412 451.011765c0 0.752941 0.752941 0.752941 0.752941 1.505882 2.258824 3.764706 9.788235 0 8.282353-3.764706 0-0.752941 0-0.752941-0.752941-1.505882-2.258824-8.282353-12.8-3.011765-8.282353 3.764706zM630.211765 546.635294c7.529412 45.176471 19.576471 94.117647 42.917647 133.270588 1.505882 3.011765 6.776471 1.505882 6.023529-2.258823-9.035294-45.176471-25.6-89.6-39.152941-133.270588-2.258824-6.023529-11.294118-4.517647-9.788235 2.258823zM693.458824 729.6c2.258824 5.270588 4.517647 10.541176 6.023529 16.564706 1.505882 3.011765 6.023529 0.752941 5.270588-2.258824-2.258824-5.270588-4.517647-10.541176-6.023529-15.811764-1.505882-4.517647-6.023529-1.505882-5.270588 1.505882zM715.294118 787.576471c0 1.505882 0.752941 3.764706 0.752941 5.270588 0 1.505882 2.258824 0.752941 2.258823-0.752941s-0.752941-3.764706-0.752941-5.270589c-0.752941-0.752941-2.258824 0-2.258823 0.752942z" fill="#D98229" /><path d="M630.964706 736.376471c15.058824 22.588235 31.623529 46.682353 50.447059 67.011764 3.764706 3.764706 10.541176-0.752941 7.529411-5.270588-15.058824-23.341176-33.129412-45.929412-51.2-67.011765-3.011765-3.011765-9.788235 0.752941-6.77647 5.270589z" fill="#D98229" /><path d="M707.011765 821.458824c0.752941 0 1.505882 0 2.258823 0.752941 5.270588 0.752941 7.529412-5.270588 2.258824-7.529412-0.752941 0-1.505882-0.752941-2.258824-0.752941-4.517647-3.764706-7.529412 6.023529-2.258823 7.529412z" fill="#D98229" /><path d="M582.776471 705.505882c-20.329412 3.764706-36.894118 18.823529-41.411765 39.152942-0.752941 3.764706 4.517647 6.023529 6.023529 2.258823 6.776471-16.564706 19.576471-28.611765 36.894118-33.129412 5.270588-2.258824 3.764706-9.788235-1.505882-8.282353z" fill="#D98229" /></svg>