<?xml version="1.0" standalone="no"?><!DOCTYPE svg PUBLIC "-//W3C//DTD SVG 1.1//EN" "http://www.w3.org/Graphics/SVG/1.1/DTD/svg11.dtd"><svg class="icon" width="200px" height="200.00px" viewBox="0 0 1024 1024" version="1.1" xmlns="http://www.w3.org/2000/svg"><path d="M546.635294 113.694118c-9.035294-5.270588-22.588235-6.776471-32.37647-3.011765-3.011765 1.505882-5.270588 3.764706-7.529412 6.776471-0.752941 0.752941-2.258824 1.505882-3.011765 2.258823-8.282353 6.776471-11.294118 20.329412-7.529412 30.117647 8.282353 22.588235 40.658824 34.635294 58.729412 16.564706 16.564706-15.811765 10.541176-42.164706-8.282353-52.705882z m-1.505882 34.635294c-4.517647 13.552941-21.835294 7.529412-28.611765-0.752941-3.011765-3.764706-3.764706-7.529412-3.011765-11.294118 1.505882-2.258824 2.258824-3.764706 3.764706-6.023529 3.011765-4.517647 0-2.258824 4.517647-3.011765 2.258824-0.752941 5.270588-0.752941 8.282353 0 9.788235 1.505882 18.823529 10.541176 15.058824 21.082353z" fill="#FBC20E" /><path d="M556.423529 161.129412c-20.329412 19.576471-45.929412 4.517647-60.235294-11.294118 8.282353 21.835294 40.658824 34.635294 58.729412 16.564706 5.270588-5.270588 8.282353-12.047059 9.035294-18.070588-2.258824 9.035294-4.517647 10.541176-7.529412 12.8z" fill="#E6AB0E" /><path d="M511.247059 117.458824c-0.752941 0.752941-2.258824 2.258824-1.505883 3.764705 0.752941 1.505882 2.258824 2.258824 3.764706 2.258824s3.011765-1.505882 4.517647-2.258824c3.764706-2.258824 8.282353-2.258824 12.8-1.505882 4.517647 0.752941 8.282353 3.011765 12.047059 5.270588 0.752941 0.752941 1.505882 1.505882 3.011765 1.505883 0.752941 0 2.258824 0.752941 3.011765 0 0.752941-0.752941 1.505882-2.258824 0.752941-3.011765 0-1.505882-1.505882-2.258824-2.258824-3.011765-7.529412-7.529412-18.070588-9.788235-27.858823-7.529412-3.011765 1.505882-6.023529 3.011765-8.282353 4.517648zM551.152941 132.517647c0 1.505882 0.752941 3.011765 1.505883 3.764706 0.752941 0.752941 3.011765 0.752941 3.764705 0 0.752941-0.752941 0.752941-1.505882 0.752942-3.011765 0-0.752941 0-2.258824-0.752942-3.011764-1.505882-2.258824-5.270588-1.505882-5.270588 2.258823z" fill="#FBD77E" /><path d="M481.882353 261.270588S467.576471 177.694118 533.082353 173.176471s57.223529 99.388235 57.223529 99.388235-37.647059-24.847059-108.423529-11.294118z" fill="#FCD53A" /><path d="M448.752941 326.776471s-21.835294-85.082353 83.576471-86.588236c105.411765-0.752941 88.847059 89.6 88.847059 89.6s-57.223529-31.623529-172.42353-3.011764z" fill="#FBC20E" /><path d="M312.470588 423.905882c-41.411765 66.258824-54.211765 147.576471-49.694117 225.882353 1.505882 24.094118 4.517647 48.188235 14.305882 70.776471 8.282353 20.329412 21.835294 37.647059 36.894118 53.458823 39.152941 39.152941 92.611765 62.494118 147.57647 70.776471 54.964706 7.529412 111.435294 0 163.388235-18.070588 27.105882-9.035294 54.211765-21.082353 76.8-39.152941 45.929412-35.388235 73.035294-91.105882 81.317648-148.329412 8.282353-57.223529 0.752941-115.952941-14.305883-171.670588-6.023529-23.341176-13.552941-47.435294-25.6-68.517647-24.094118-41.411765-67.011765-70.776471-112.941176-85.082353-90.352941-28.611765-191.247059-14.305882-264.282353 48.188235-21.082353 16.564706-39.152941 38.4-53.458824 61.741176z" fill="#D83E3E" /><path d="M484.141176 358.4c-60.988235 17.317647-112.941176 65.505882-134.77647 124.988235-9.035294 24.094118-13.552941 50.447059-17.317647 76.047059-6.776471 43.670588-12.8 90.352941 3.011765 131.011765 16.564706 41.411765 63.247059 73.788235 104.658823 58.729412 33.882353-12.8 50.447059-49.694118 65.505882-82.070589 15.058824-32.376471 38.4-68.517647 73.788236-72.282353 22.588235-2.258824 48.941176 8.282353 67.011764-6.023529 14.305882-11.294118 15.811765-32.376471 24.847059-48.188235 26.352941-47.435294 61.741176-104.658824 3.764706-148.329412-48.188235-38.4-132.517647-50.447059-190.494118-33.882353z" fill="#EB5959" /><path d="M406.588235 437.458824c-11.294118 13.552941-16.564706 31.623529-21.082353 48.188235-3.764706 13.552941-6.776471 27.105882-3.764706 40.658823 3.011765 13.552941 14.305882 25.6 27.858824 25.6 11.294118 0 20.329412-8.282353 26.352941-18.070588 6.023529-9.035294 9.788235-20.329412 16.564706-29.364706 9.788235-13.552941 24.847059-22.588235 40.658824-25.6 21.082353-3.764706 44.423529 3.764706 63.247058-6.023529 9.788235-5.270588 18.070588-15.058824 28.611765-18.070588 23.341176-6.776471 49.694118 17.317647 70.02353 4.517647 28.611765-18.070588 0-49.694118-18.82353-60.235294-20.329412-10.541176-42.917647-18.823529-66.258823-18.070589-48.941176 2.258824-130.258824 15.058824-163.388236 56.470589zM371.952941 640c3.011765 12.047059 6.776471 24.094118 12.8 35.388235 3.764706 7.529412 9.035294 14.305882 17.317647 17.317647 8.282353 3.011765 18.823529-1.505882 24.094118-9.035294 5.270588-7.529412 6.023529-17.317647 3.011765-25.6-6.023529-16.564706-11.294118-25.6-12.8-43.670588-1.505882-12.047059-0.752941-19.576471-14.305883-24.094118-33.129412-9.035294-36.141176 29.364706-30.117647 49.694118z" fill="#F58181" /><path d="M509.741176 414.870588c-3.764706 2.258824-7.529412 6.023529-6.77647 10.541177 0.752941 6.023529 8.282353 8.282353 14.305882 9.035294 2.258824 0 4.517647 0.752941 6.776471 0 2.258824-0.752941 3.764706-2.258824 6.023529-4.517647 5.270588-4.517647 12.8-7.529412 19.576471-7.529412 6.776471 0 20.329412 3.764706 24.847059-4.517647 3.011765-6.023529-1.505882-12.047059-6.776471-14.305882-14.305882-6.023529-45.929412 3.011765-57.976471 11.294117zM433.694118 458.541176c0 1.505882-0.752941 3.764706 0.752941 5.270589 1.505882 2.258824 4.517647 3.011765 6.77647 3.011764 3.764706 0.752941 8.282353 0.752941 12.047059 0s7.529412-3.764706 9.035294-7.529411c4.517647-10.541176 20.329412-15.811765 2.258824-21.082353-12.8-4.517647-27.858824 6.023529-30.870588 20.329411z" fill="#F89B9B" /><path d="M751.435294 543.623529c-18.070588 71.529412-56.470588 147.576471-118.211765 190.494118-29.364706 20.329412-70.776471 38.4-104.658823 50.447059-43.670588 15.811765-95.623529 6.776471-140.047059-2.258824-1.505882 0-2.258824 2.258824-0.752941 3.011765 87.341176 30.117647 188.988235 31.623529 266.541176-22.588235C726.588235 711.529412 764.235294 632.470588 753.694118 544.376471c0-1.505882-2.258824-1.505882-2.258824-0.752942zM722.070588 717.552941c-8.282353 9.788235-17.317647 19.576471-27.105882 27.858824-1.505882 1.505882 0 3.011765 1.505882 2.258823 9.788235-9.035294 18.823529-18.823529 27.105883-29.364706l-1.505883-0.752941z" fill="#BB3636" /><path d="M667.858824 771.764706c-33.882353 17.317647-70.023529 28.611765-106.917648 36.894118-2.258824 0.752941-2.258824 4.517647 0.752942 4.517647 39.152941-4.517647 74.541176-18.823529 106.917647-40.658824l-0.752941-0.752941zM577.505882 742.4c30.870588-16.564706 63.247059-40.658824 80.564706-72.282353 1.505882-2.258824-2.258824-3.764706-3.011764-2.258823-24.094118 27.858824-45.929412 53.458824-78.305883 73.035294 0 0.752941 0 1.505882 0.752941 1.505882zM717.552941 569.223529c-4.517647 18.823529-11.294118 36.894118-20.329412 53.458824-7.529412 15.058824-18.823529 29.364706-24.847058 45.929412-0.752941 2.258824 1.505882 3.764706 3.011764 2.258823 24.094118-26.352941 39.152941-67.011765 42.164706-101.647059 0.752941 0 0 0 0 0zM735.623529 449.505882c6.776471 21.082353 8.282353 42.164706 6.776471 64 0 3.011765 4.517647 3.764706 5.270588 0.752942 2.258824-22.588235-2.258824-44.423529-10.541176-65.505883-0.752941-0.752941-2.258824-0.752941-1.505883 0.752941zM488.658824 774.776471c-6.776471 0-12.8 0.752941-19.576471 0.752941-0.752941 0-0.752941 1.505882 0 1.505882 6.776471-0.752941 12.8-0.752941 19.576471-1.505882 0.752941 0 0-0.752941 0-0.752941zM290.635294 539.105882c-18.823529 85.082353-21.082353 182.211765 60.235294 234.164706 2.258824 1.505882 5.270588-1.505882 3.011765-3.764706-63.247059-60.235294-72.282353-147.576471-61.741177-229.647058 0-1.505882-1.505882-1.505882-1.505882-0.752942zM344.094118 424.658824c-10.541176 4.517647-18.823529 23.341176-23.341177 33.129411-7.529412 17.317647-12.047059 36.894118-16.564706 55.717647-0.752941 2.258824 3.011765 3.011765 3.764706 0.752942 3.764706-15.811765 7.529412-31.623529 12.8-46.682353 4.517647-12.047059 11.294118-34.635294 22.588235-41.411765 1.505882-0.752941 1.505882-1.505882 0.752942-1.505882z" fill="#BB3636" /><path d="M501.458824 258.258824c-9.788235 3.011765-19.576471 6.776471-26.352942 13.552941-3.011765 3.011765-6.023529 7.529412-6.023529 12.047059 0 4.517647 3.764706 9.035294 8.282353 9.035294 4.517647-0.752941 6.776471-4.517647 9.788235-8.282353 9.788235-12.047059 26.352941-15.058824 41.411765-14.305883 15.058824 0.752941 30.117647 5.270588 45.17647 5.270589 4.517647 0 10.541176-1.505882 11.294118-6.02353 1.505882-13.552941-21.835294-14.305882-30.117647-15.058823-18.070588-2.258824-36.141176-0.752941-53.458823 3.764706z" fill="#FBD366" /><path d="M508.988235 199.529412c-6.776471 5.270588-9.788235 15.058824-9.788235 24.094117 0 1.505882 0.752941 3.764706 2.258824 5.270589 2.258824 1.505882 5.270588 0.752941 7.529411-1.505883 1.505882-2.258824 2.258824-4.517647 3.764706-7.529411 2.258824-4.517647 7.529412-6.776471 12.047059-8.282353 4.517647-1.505882 9.788235-1.505882 15.058824-1.505883 6.776471 0 15.058824-2.258824 13.552941-10.541176-0.752941-4.517647-3.764706-9.035294-8.282353-9.788236-11.294118-3.011765-28.611765 3.764706-36.141177 9.788236z" fill="#FBE380" /><path d="M594.823529 281.6c1.505882 0.752941 3.764706 1.505882 5.270589 0.752941 0.752941 0 1.505882 0 2.258823-0.752941 4.517647-3.011765 0-10.541176-4.517647-11.294118-6.023529-0.752941-7.529412 8.282353-3.011765 11.294118z" fill="#FBD366" /><path d="M559.435294 202.541176c0.752941 0 1.505882 0.752941 1.505882 0.752942 3.011765 0.752941 6.776471 0 7.529412-3.011765 0.752941-2.258824-0.752941-4.517647-3.011764-6.023529-4.517647-2.258824-11.294118 5.270588-6.02353 8.282352z" fill="#FBE380" /><path d="M490.164706 293.647059c30.870588-7.529412 71.529412-9.788235 102.4-3.764706 0.752941 0 0.752941-0.752941 0-0.752941-15.811765-4.517647-32.376471-10.541176-48.941177-9.788236-18.070588 0.752941-37.647059 6.776471-54.211764 13.552942 0 0 0 1.505882 0.752941 0.752941z" fill="#E1AA14" /><path d="M513.505882 232.658824c20.329412-2.258824 39.905882 0 60.988236 3.011764 4.517647 0.752941 5.270588-6.023529 0.752941-6.77647-20.329412-3.011765-42.917647-6.023529-61.741177 3.011764-0.752941 0-0.752941 0.752941 0 0.752942zM565.458824 219.858824c3.011765 0 6.023529 0.752941 8.282352 1.505882 0-0.752941 0.752941-2.258824 0.752942-3.011765h-3.011765c-2.258824 0-3.011765 3.011765-0.752941 3.764706h3.011764c2.258824 0 3.011765-3.011765 0.752942-3.764706-3.764706-0.752941-6.023529 0-9.788236 0.752941 0.752941 0 0.752941 0.752941 0.752942 0.752942z" fill="#E1BB21" /><path d="M566.964706 209.317647c1.505882 0.752941 3.764706 1.505882 5.270588 1.505882 1.505882 0 2.258824-3.011765 0.752941-3.011764-2.258824 0-3.764706 0.752941-6.023529 1.505882 0-0.752941 0 0 0 0z" fill="#E1BB21" /><path d="M676.894118 555.670588c-11.294118 0-22.588235-0.752941-33.882353-0.752941 3.764706-3.764706 6.776471-7.529412 10.541176-11.294118 0.752941-0.752941 0-1.505882-0.752941-0.752941-4.517647 3.764706-11.294118 7.529412-16.564706 12.047059-12.047059 0-24.094118 0-35.388235 0.752941 3.764706-2.258824 7.529412-4.517647 9.788235-8.282353 0-0.752941 0-0.752941-0.752941-0.752941-6.023529 0.752941-12.8 5.270588-18.070588 8.282353-0.752941 0.752941-2.258824 1.505882-3.011765 1.505882-11.294118 0.752941-22.588235 0.752941-33.882353 1.505883 6.023529-6.023529 12.047059-12.047059 17.317647-18.070588 1.505882 0.752941 3.011765 0.752941 4.517647 0.752941 6.023529 1.505882 12.047059 3.011765 18.070588 3.011764 1.505882 0 3.011765-3.011765 0.752942-3.764705-3.764706-2.258824-12.8-3.011765-18.82353-5.270589 6.023529-6.776471 12.8-13.552941 18.82353-20.329411 6.023529 2.258824 12.047059 4.517647 18.070588 6.023529 1.505882 0 3.011765-1.505882 1.505882-3.011765-4.517647-3.764706-9.788235-6.023529-15.811765-7.529412l24.847059-29.364705c0.752941-0.752941 0-1.505882-0.752941-0.752942l-22.588235 18.070589c0.752941-3.011765 0.752941-6.023529 0-9.035294 0 0-0.752941-0.752941-0.752941 0-2.258824 4.517647-4.517647 9.788235-6.02353 15.058823-7.529412 6.776471-15.058824 12.8-22.588235 19.576471 0-1.505882 0.752941-3.764706 0.752941-5.270589 0-3.764706 0-7.529412-0.752941-12.047058 0-0.752941-0.752941-0.752941-1.505882 0-2.258824 5.270588-3.011765 11.294118-3.764706 17.317647 0 1.505882-0.752941 3.011765-0.752941 5.270588L538.352941 553.411765v-20.329412l4.517647-4.517647c3.764706-3.764706 8.282353-6.776471 12.8-10.541177 0.752941-0.752941 0-2.258824-1.505882-2.258823-3.011765 0.752941-6.023529 2.258824-9.035294 4.517647-1.505882 1.505882-5.270588 5.270588-7.529412 6.023529 0-6.776471-0.752941-12.8-1.505882-19.57647 2.258824-1.505882 3.764706-3.011765 5.270588-4.517647 4.517647-3.764706 9.035294-7.529412 12.047059-12.047059 0.752941-1.505882-0.752941-3.011765-2.258824-3.011765-6.023529 2.258824-10.541176 7.529412-16.564706 11.294118-1.505882-11.294118-3.764706-22.588235-7.529411-33.129412-0.752941-1.505882-2.258824-0.752941-2.258824 0v29.364706c-3.764706-3.011765-6.776471-6.023529-10.541176-9.035294-0.752941-0.752941-1.505882 0-0.752942 0.752941 3.011765 5.270588 6.023529 10.541176 9.788236 15.811765 0 0.752941 0.752941 0.752941 0.752941 1.505882 0 5.270588 0 10.541176-0.752941 15.811765l-0.752942-0.752941c-3.011765-3.011765-6.023529-5.270588-9.788235-7.529412-0.752941 0-0.752941 0.752941-0.752941 0.752941 4.517647 4.517647 6.776471 10.541176 9.788235 15.811765 0 7.529412-0.752941 14.305882-0.752941 21.835294-6.023529-7.529412-12.047059-14.305882-18.070588-21.835294v-4.517647-16.564706c0-1.505882-2.258824-1.505882-2.258824 0-1.505882 3.764706-3.011765 8.282353-3.764706 13.552941-2.258824-3.011765-5.270588-6.023529-7.529411-9.035294 0.752941-2.258824 0.752941-4.517647 0.752941-6.776471 0.752941-4.517647 0.752941-8.282353 0-12.8h-0.752941c-0.752941 3.011765-1.505882 5.270588-3.011765 8.282353-0.752941 1.505882-1.505882 3.764706-2.258824 6.02353-7.529412-9.035294-14.305882-18.070588-21.835294-27.105883-0.752941-0.752941-1.505882 0-1.505882 0.752941 6.023529 9.788235 12.047059 19.576471 17.317647 29.364706-2.258824 0-4.517647-0.752941-5.270588-0.752941-3.011765-0.752941-6.023529-0.752941-8.282353-1.505882-3.764706-0.752941-4.517647 6.023529-0.752941 6.77647 4.517647 0.752941 8.282353 1.505882 12.8 1.505883h5.270588c3.011765 5.270588 6.023529 11.294118 9.035294 16.564706-3.764706-1.505882-7.529412-2.258824-10.541176-3.764706-1.505882 0-1.505882 1.505882-0.752942 2.258823 5.270588 3.764706 10.541176 6.776471 16.564706 9.035294 3.764706 6.776471 7.529412 12.8 11.294118 19.576471l-31.623529 2.258823c-3.011765-2.258824-5.270588-5.270588-8.282353-6.77647-1.505882-0.752941-3.011765 0.752941-2.258824 2.258823 1.505882 2.258824 3.011765 3.764706 4.517647 5.270589-10.541176 0.752941-21.082353 1.505882-32.37647 2.258823-3.011765-4.517647-7.529412-8.282353-10.541177-12.047059-0.752941-0.752941-1.505882 0-1.505882 0.752942l6.77647 11.294117c-12.8 0.752941-26.352941 1.505882-39.152941 2.258824-1.505882 0-1.505882 2.258824 0 2.258823 12.047059 0.752941 24.847059 2.258824 36.894118 3.011765-6.023529 3.011765-12.8 7.529412-15.811765 13.552941-0.752941 1.505882 0.752941 3.764706 2.258824 2.258824 5.270588-3.011765 9.035294-6.776471 14.305882-9.788236 3.011765-1.505882 7.529412-3.011765 9.788235-5.270588 12.8 0.752941 25.6 1.505882 37.647059 2.258824-2.258824 1.505882-5.270588 3.011765-5.270588 3.764706-3.764706 3.011765-7.529412 6.023529-10.541177 9.035294-2.258824 2.258824 0.752941 6.023529 3.764706 4.517647 5.270588-3.011765 9.788235-7.529412 15.058824-11.294118 1.505882-1.505882 4.517647-3.011765 6.023529-6.023529 8.282353 0 16.564706 0.752941 24.847059 0.752941-6.776471 6.776471-15.058824 12.8-22.588235 18.823529-4.517647-1.505882-8.282353-2.258824-12.8-3.764706-0.752941 0-1.505882 0.752941-0.752941 1.505883 3.764706 1.505882 6.776471 3.011765 10.541176 3.764706-9.788235 6.776471-19.576471 13.552941-28.611765 19.57647-1.505882-0.752941-3.011765-0.752941-4.517647-1.505882-6.023529-1.505882-12.8-3.011765-18.823529-4.517647-1.505882 0-1.505882 1.505882-0.752941 2.258823 4.517647 1.505882 9.035294 3.011765 12.8 5.270589 0.752941 0 3.011765 1.505882 5.270588 2.258823-15.058824 9.788235-30.870588 20.329412-44.42353 32.376471-1.505882 0.752941 0.752941 3.011765 1.505883 2.258823 14.305882-9.788235 30.117647-18.070588 45.17647-26.352941-0.752941 1.505882-0.752941 3.764706-1.505882 4.517647-0.752941 3.764706-2.258824 8.282353-1.505882 12.047059 0 3.011765 3.764706 3.764706 5.270588 1.505882 3.011765-5.270588 3.764706-12.047059 4.517647-18.070588 0-1.505882 0.752941-2.258824 0.752941-3.764706 11.294118-6.023529 23.341176-12.8 33.882353-20.329412-0.752941 3.011765-1.505882 6.023529-2.258823 8.282353-1.505882 3.764706-2.258824 7.529412-3.764706 12.047059-0.752941 3.011765 3.764706 3.764706 4.517647 1.505882 2.258824-5.270588 3.764706-10.541176 5.270588-16.564705 0.752941-2.258824 2.258824-6.023529 2.258824-9.035295 5.270588-3.764706 10.541176-8.282353 15.811764-12.8l2.258824-2.258823c-0.752941 22.588235-1.505882 44.423529-0.752941 67.011765-0.752941 0.752941-1.505882 0.752941-1.505883 1.505882-6.023529 3.764706-11.294118 8.282353-16.564706 13.552941-0.752941 0.752941 0 1.505882 0.752942 1.505883 3.764706-2.258824 8.282353-4.517647 12.047058-6.776471 1.505882-0.752941 3.011765-2.258824 5.270589-3.764706 0.752941 14.305882 2.258824 29.364706 4.517647 42.917647 0.752941 3.011765 6.023529 3.011765 6.77647 0 3.011765-13.552941 3.764706-27.858824 4.517647-42.917647 4.517647 4.517647 9.035294 12.047059 12.047059 15.811765 0.752941 1.505882 3.011765 0 2.258824-1.505883-3.011765-6.023529-6.023529-11.294118-9.788236-15.811764-0.752941-1.505882-2.258824-3.764706-4.517647-5.270589 0.752941-15.811765 0.752941-32.376471 0-48.188235l6.776471 9.035294c-1.505882 9.788235-3.011765 19.576471 0.752941 27.858824 0.752941 1.505882 3.764706 0.752941 3.764706-0.752941-0.752941-6.776471 0-12.8 0.752941-18.82353 6.776471 8.282353 13.552941 16.564706 21.082353 24.847059-3.011765 6.023529-4.517647 12.047059-7.529412 18.070588-0.752941 1.505882 1.505882 3.764706 3.011765 2.258824 2.258824-3.011765 4.517647-6.776471 6.023529-10.541177 0-0.752941 0.752941-3.764706 1.505883-6.023529 9.788235 10.541176 19.576471 21.082353 30.117647 32.376471 2.258824 2.258824 7.529412-0.752941 5.270588-3.764706-6.776471-9.788235-12.8-20.329412-18.823529-30.117647 6.023529 0 12.047059 0.752941 18.823529 0 0.752941 0 0.752941-0.752941 0-1.505883-5.270588-2.258824-11.294118-3.011765-17.317647-3.764706-1.505882 0-3.011765-0.752941-5.270588-0.752941-6.776471-10.541176-12.8-21.082353-19.576471-31.623529 5.270588 0.752941 9.788235 0 13.552941-2.258824 0.752941 0 0.752941-0.752941 0-0.752941-4.517647-2.258824-9.035294-2.258824-13.552941-3.011765-1.505882 0-3.011765-0.752941-4.517647-0.752941-6.023529-9.035294-11.294118-17.317647-18.070588-25.6l-0.752941-0.752941c16.564706-0.752941 33.129412-1.505882 50.447059-3.011765 1.505882 0.752941 2.258824 1.505882 3.011764 3.011765 3.764706 3.764706 8.282353 9.788235 14.305883 10.541176 2.258824 0.752941 3.764706-2.258824 2.258823-3.764705-3.764706-3.764706-7.529412-6.776471-11.294118-10.541177 9.788235-0.752941 20.329412-2.258824 30.117648-3.764706 1.505882 1.505882 3.764706 3.011765 5.270588 5.270588 3.764706 4.517647 6.776471 9.788235 11.294117 15.058824 1.505882 2.258824 5.270588 0 4.517647-2.258824-3.011765-6.776471-7.529412-12.8-12.8-18.823529 12.047059-2.258824 23.341176-4.517647 35.388236-6.776471 7.529412 0 6.776471-5.270588 3.764706-5.270588z" fill="#FFFFFF" /></svg>