<?xml version="1.0" standalone="no"?><!DOCTYPE svg PUBLIC "-//W3C//DTD SVG 1.1//EN" "http://www.w3.org/Graphics/SVG/1.1/DTD/svg11.dtd"><svg class="icon" width="200px" height="200.00px" viewBox="0 0 1024 1024" version="1.1" xmlns="http://www.w3.org/2000/svg"><path d="M896 540.611765c0-43.670588-24.094118-86.588235-60.235294-103.152941l-4.517647-4.517648h-0.752941c-0.752941 0-1.505882 1.505882-2.258824 1.505883-12.047059-4.517647-27.858824-8.282353-44.423529-8.282353-21.082353 0-41.411765 6.776471-59.482353 17.317647-3.011765-6.776471-5.270588-12.8-8.282353-19.576471-2.258824-6.776471-5.270588-12.8-7.529412-19.57647-12.047059-31.623529-24.847059-64.752941-47.435294-93.364706-12.8-16.564706-28.611765-30.870588-46.682353-42.917647-32.376471-21.082353-70.776471-32.376471-110.682353-32.376471-18.823529 0-36.894118 2.258824-54.964706 7.529412-6.023529 1.505882-12.047059 3.764706-18.070588 6.023529-37.647059 14.305882-71.529412 40.658824-100.894118 80.564706-30.870588 41.411765-48.941176 87.341176-58.729411 118.211765-7.529412 23.341176-12.047059 48.941176-15.058824 77.552941-3.011765 28.611765-3.011765 57.223529-2.258824 84.329412H240.941176l-3.011764 0.752941c-33.129412 9.788235-92.611765 48.941176-77.552941 125.741177 0 1.505882 0.752941 2.258824 0.752941 3.764705 15.058824 67.764706 66.258824 102.4 150.588235 102.4 33.129412 0 70.776471-5.270588 115.952941-15.058823 211.576471-48.941176 304.941176-106.917647 293.647059-182.211765-0.752941-3.764706-1.505882-6.776471-2.258823-10.541176 18.070588 12.047059 39.905882 19.576471 63.247058 19.57647 62.494118 0 113.694118-51.2 113.694118-113.694117z m-225.129412 14.305882c-15.058824-10.541176-32.376471-16.564706-50.447059-16.564706-12.047059 0-24.094118 2.258824-36.141176 7.529412 0-0.752941 0-1.505882-0.752941-2.258824-4.517647-19.576471-7.529412-37.647059-9.035294-54.964705-0.752941-9.788235-2.258824-24.847059-0.752942-38.4 0.752941-10.541176 3.011765-19.576471 6.02353-24.847059 0.752941-1.505882 1.505882-2.258824 2.258823-3.764706l2.258824-2.258824c0.752941 0 1.505882 0.752941 2.258823 0.752941 4.517647 2.258824 10.541176 8.282353 15.058824 15.811765 7.529412 10.541176 13.552941 21.835294 20.329412 34.635294 12.8 24.094118 26.352941 49.694118 48.941176 69.270589l0.752941 0.752941v0.752941c-0.752941 4.517647-0.752941 9.035294-0.752941 13.552941z" fill="#FFFFFF" /><path d="M791.341176 532.329412c-15.058824 44.423529-79.058824 12.8-102.4-5.270588-33.129412-25.6-46.682353-69.270588-69.270588-103.152942-6.023529-8.282353-13.552941-17.317647-21.835294-22.588235-10.541176-6.023529-21.835294-6.776471-32.37647 6.023529-2.258824 2.258824-3.764706 4.517647-5.270589 7.529412-5.270588 9.035294-7.529412 21.082353-8.282353 33.129412-0.752941 15.058824 0 30.117647 1.505883 42.164706 1.505882 18.823529 5.270588 38.4 9.788235 57.97647 8.282353 33.882353 19.576471 67.011765 31.623529 97.882353 2.258824 6.023529 6.023529 12.8 9.035295 19.576471-48.188235 24.847059-100.141176 43.670588-152.847059 54.964706-14.305882 3.011765-157.364706 30.870588-160.376471 22.588235 0 0-12.047059-38.4-12.8-72.282353-1.505882-46.682353-4.517647-96.376471 0-144.564706 2.258824-24.847059 6.776471-49.694118 13.552941-73.035294 12.047059-37.647059 30.117647-77.552941 54.964706-112.188235 24.094118-32.376471 54.211765-59.482353 91.105883-73.035294 5.270588-2.258824 10.541176-3.764706 15.811764-5.270588 51.2-13.552941 105.411765-6.023529 148.329412 22.588235 15.058824 9.788235 29.364706 22.588235 41.411765 37.647059 24.847059 31.623529 36.894118 70.776471 51.2 107.670588 15.811765 40.658824 36.894118 89.6 87.341176 88.847059 6.776471 1.505882 11.294118 7.529412 9.788235 12.8z" fill="#515D33" /><path d="M874.164706 539.105882c0 50.447059-40.658824 92.611765-91.105882 92.611765-39.905882 0-74.541176-25.6-86.588236-61.741176-3.011765-9.035294-4.517647-18.823529-4.517647-28.611765 0-50.447059 40.658824-93.364706 91.105883-93.364706 15.811765 0 30.870588 9.035294 43.670588 9.035294 27.858824 14.305882 47.435294 47.435294 47.435294 82.070588zM423.152941 807.152941c-146.070588 33.882353-222.117647 9.788235-240.941176-70.77647 0-1.505882-0.752941-2.258824-0.752941-3.764706-15.058824-78.305882 62.494118-100.894118 62.494117-100.894118s247.717647-3.011765 324.517647-54.211765c37.647059-24.847059 67.764706-21.835294 89.6-5.270588 23.341176 16.564706 37.647059 48.188235 41.411765 76.047059 11.294118 74.541176-131.011765 124.988235-276.329412 158.870588z" fill="#DEC5AD" /><path d="M562.447059 548.894118c-109.176471 16.564706-213.082353-1.505882-285.364706-21.082353 2.258824-24.847059 6.776471-49.694118 13.552941-73.035294 12.047059-37.647059 30.117647-77.552941 54.964706-112.188236 64.752941 36.141176 152.847059 80.564706 204.8 105.411765-0.752941 15.058824 0 30.117647 1.505882 42.164706 3.011765 19.576471 6.023529 39.152941 10.541177 58.729412zM602.352941 286.870588c-1.505882 40.658824-3.764706 85.082353-5.270588 114.447059-10.541176-6.023529-21.835294-6.776471-32.376471 6.023529-2.258824 2.258824-3.764706 4.517647-5.270588 7.529412l-106.164706-150.588235c51.2-13.552941 106.164706-5.270588 149.082353 22.588235z" fill="#667A45" /><path d="M658.070588 572.235294c-185.223529 202.541176-379.482353 186.729412-476.611764 160.376471-15.058824-78.305882 62.494118-100.894118 62.494117-100.894118s247.717647-3.011765 324.517647-54.211765c37.647059-24.094118 67.764706-21.082353 89.6-5.270588zM696.470588 568.470588c-3.011765-9.035294-4.517647-17.317647-4.517647-27.858823 0-50.447059 40.658824-93.364706 91.105883-93.364706 15.811765 0 30.870588 9.035294 43.670588 9.035294 9.035294 128-83.576471 121.223529-130.258824 112.188235z" fill="#F6E6D5" /></svg>