<?xml version="1.0" standalone="no"?><!DOCTYPE svg PUBLIC "-//W3C//DTD SVG 1.1//EN" "http://www.w3.org/Graphics/SVG/1.1/DTD/svg11.dtd"><svg class="icon" width="200px" height="200.00px" viewBox="0 0 1024 1024" version="1.1" xmlns="http://www.w3.org/2000/svg"><path d="M594.823529 853.835294c161.882353-27.858824 271.811765-176.188235 245.458824-331.294118-7.529412-43.670588-24.847059-84.329412-51.2-118.964705l36.141176-6.776471c6.776471-1.505882 12.047059-6.023529 15.058824-12.047059 3.011765-6.023529 3.011765-13.552941 0-19.57647l-22.588235-42.917647c-4.517647-8.282353-14.305882-12.8-23.341177-11.294118l-33.882353 6.77647-9.788235-36.141176c0-0.752941 0-1.505882-0.752941-1.505882l-39.152941-143.811765c-3.011765-11.294118-13.552941-18.070588-24.847059-15.811765L271.058824 203.294118c-12.8-3.011765-24.847059-3.764706-35.388236-2.258824-17.317647 3.011765-40.658824 14.305882-51.2 51.2-12.047059 42.917647 19.576471 91.858824 85.082353 132.517647l5.270588 30.117647-39.905882 8.282353c-11.294118 2.258824-18.823529 12.8-17.317647 23.341177l5.270588 42.164706c0.752941 6.023529 3.764706 11.294118 9.035294 15.058823 4.517647 3.764706 11.294118 4.517647 16.564706 3.764706l12.8-2.258824c-10.541176 38.4-12.047059 78.305882-5.270588 117.458824 24.847059 155.105882 177.694118 258.258824 338.823529 231.152941z" fill="#FFFFFF" /><path d="M819.2 526.305882c24.094118 143.058824-77.552941 280.094118-227.388235 305.694118-149.835294 25.6-291.388235-70.023529-316.235294-213.082353-24.094118-143.058824 77.552941-280.094118 227.388235-305.694118 149.835294-25.6 291.388235 70.023529 316.235294 213.082353z" fill="#F8E8D7" /><path d="M451.011765 535.341176c3.764706 21.835294-11.294118 42.917647-33.129412 46.682353-21.835294 3.764706-42.917647-11.294118-46.682353-33.129411-3.764706-21.835294 11.294118-42.917647 33.129412-46.682353 21.835294-3.764706 42.917647 10.541176 46.682353 33.129411zM702.494118 492.423529c3.764706 21.835294-11.294118 42.917647-33.129412 46.682353-21.835294 3.764706-42.917647-11.294118-46.682353-33.129411-3.764706-21.835294 11.294118-42.917647 33.129412-46.682353 21.835294-3.764706 42.917647 11.294118 46.682353 33.129411z" fill="#520D1B" /><path d="M476.611765 641.505882c5.270588 30.117647-20.329412 58.729412-57.22353 65.505883-36.894118 6.023529-70.776471-12.8-76.047059-42.917647-5.270588-30.117647 20.329412-58.729412 57.22353-65.505883 36.894118-6.023529 70.776471 13.552941 76.047059 42.917647zM787.576471 588.8c5.270588 30.117647-20.329412 58.729412-57.22353 65.505882-36.894118 6.023529-70.776471-12.8-76.047059-42.917647-5.270588-30.117647 20.329412-58.729412 57.22353-65.505882 36.894118-6.023529 70.776471 12.8 76.047059 42.917647z" fill="#FCB8B8" /><path d="M743.152941 581.270588c1.505882 10.541176-10.541176 22.588235-30.117647 33.882353-2.258824 1.505882-4.517647 2.258824-6.77647 3.764706-18.070588 9.788235-40.658824 18.070588-63.247059 24.094118-3.011765 0.752941-5.270588 1.505882-8.282353 2.258823l-20.329412 4.517647c-15.811765 3.011765-28.611765 3.011765-39.152941 2.258824-3.011765 0-6.776471-0.752941-9.788235-1.505883-20.329412-4.517647-29.364706-18.070588-31.62353-33.882352-3.764706-21.082353 3.764706-40.658824 39.905882-51.952942 3.011765-0.752941 6.776471-2.258824 9.788236-3.011764 4.517647-0.752941 9.035294-2.258824 14.305882-3.011765 9.788235-1.505882 19.576471-3.011765 30.117647-3.764706 3.011765 0 6.776471-0.752941 9.788235-0.752941 21.082353-0.752941 42.917647 0 60.988236 3.764706 3.011765 0.752941 5.270588 0.752941 8.282353 1.505882 20.329412 5.270588 34.635294 12.047059 36.141176 21.835294z" fill="#D79909" /><path d="M584.282353 562.447059c0.752941 6.776471 0 13.552941-0.752941 18.823529 0 2.258824-3.764706 3.011765-4.517647 0.752941-2.258824-5.270588-4.517647-11.294118-5.270589-17.317647 3.764706-0.752941 6.776471-1.505882 10.541177-2.258823zM643.011765 643.764706c-3.011765 0.752941-5.270588 1.505882-8.282353 2.258823-0.752941-4.517647-1.505882-9.035294-2.258824-12.8-0.752941-3.764706-1.505882-8.282353-0.752941-12.047058 0.752941-2.258824 3.764706-2.258824 5.270588-0.752942 2.258824 3.764706 3.011765 7.529412 3.764706 12.047059 0.752941 3.011765 1.505882 7.529412 2.258824 11.294118zM596.329412 609.129412c-1.505882-2.258824-4.517647-1.505882-5.270588 0.752941-0.752941 3.764706 0.752941 7.529412 0.752941 11.294118 0.752941 3.011765 1.505882 6.776471 3.764706 9.788235 0.752941 0.752941 2.258824 0.752941 3.011764-0.752941 0.752941-3.011765 0.752941-6.023529 0.752941-9.035294 0-3.764706-1.505882-9.035294-3.011764-12.047059zM639.247059 555.670588c1.505882 8.282353 2.258824 16.564706 0.752941 24.094118 0 2.258824-3.011765 3.011765-3.764706 0.752941-3.011765-6.776471-6.023529-15.811765-6.77647-24.094118 3.011765-0.752941 6.023529-0.752941 9.788235-0.752941zM670.117647 579.011765c-0.752941-1.505882-2.258824-1.505882-3.011765 0-2.258824 4.517647-2.258824 10.541176-1.505882 15.058823 0.752941 4.517647 0.752941 9.788235 4.517647 12.8 0.752941 0.752941 2.258824 0.752941 3.011765-0.752941 3.011765-3.764706 1.505882-7.529412 0.752941-12.047059-0.752941-4.517647-0.752941-10.541176-3.764706-15.058823zM708.517647 569.223529c0 1.505882-2.258824 2.258824-3.011765 0.752942-2.258824-3.011765-3.764706-6.776471-5.270588-11.294118 3.011765 0.752941 5.270588 0.752941 8.282353 1.505882v9.035294zM712.282353 611.388235v4.517647c-2.258824 1.505882-4.517647 2.258824-6.776471 3.764706-0.752941-2.258824-1.505882-4.517647-1.505882-6.77647 0-2.258824-0.752941-4.517647 0-6.776471 0-2.258824 0.752941-5.270588 0.752941-7.529412 0-1.505882 3.011765-2.258824 3.011765-0.752941 0.752941 2.258824 2.258824 3.764706 3.011765 6.02353 1.505882 2.258824 1.505882 4.517647 1.505882 7.529411zM575.247059 652.8c-3.011765 0-6.776471-0.752941-9.788235-1.505882-1.505882-6.023529-2.258824-11.294118-1.505883-15.058824 0.752941-3.011765 4.517647-3.764706 6.02353-0.752941 0 0.752941 1.505882 3.011765 1.505882 3.764706 0.752941 3.011765 1.505882 6.776471 2.258823 10.541176 1.505882 0 1.505882 1.505882 1.505883 3.011765z" fill="#B38007" /><path d="M491.670588 670.117647s110.682353 58.729412 162.635294-14.305882c0-0.752941-28.611765 115.2-162.635294 14.305882z" fill="#D64544" /><path d="M747.670588 353.129412L299.670588 438.211765 289.882353 380.988235l-26.352941-153.6 426.164706-85.082353 39.905882 146.82353z" fill="#3A2747" /><path d="M477.364706 377.223529l-18.070588-9.788235c-33.129412-33.129412-221.364706-223.623529-254.494118-109.17647-24.847059 86.588235 216.094118 200.282353 265.035294 134.77647 2.258824-3.011765 3.764706-6.023529 5.270588-9.035294 0.752941-2.258824 1.505882-3.764706 2.258824-6.776471z" fill="#667A45" /><path d="M475.105882 384c-12.047059 3.011765-24.847059 3.011765-37.647058 0.752941-10.541176-6.776471-17.317647-18.070588-23.341177-28.611765-4.517647-8.282353-9.788235-21.082353-19.576471-24.847058-1.505882-0.752941-3.011765 0.752941-2.258823 2.258823 8.282353 13.552941 16.564706 27.858824 26.352941 40.658824l6.776471 9.035294c-6.776471-1.505882-13.552941-3.764706-20.329412-6.02353-6.023529-5.270588-12.8-9.788235-17.317647-16.564705-6.776471-9.788235-10.541176-20.329412-15.058824-30.870589-6.023529-14.305882-13.552941-26.352941-26.352941-36.141176-1.505882-0.752941-2.258824 0.752941-1.505882 1.505882 6.023529 9.788235 14.305882 18.823529 18.823529 28.611765 4.517647 9.035294 6.776471 19.576471 12.047059 28.611765 3.764706 6.776471 8.282353 12.8 13.552941 18.070588-10.541176-4.517647-20.329412-9.788235-29.364706-15.058824-26.352941-28.611765-36.894118-69.270588-64.752941-97.129411-0.752941-0.752941-2.258824 0-1.505882 0.752941 12.047059 21.082353 26.352941 40.658824 37.647059 61.741176 5.270588 9.788235 10.541176 18.823529 17.317647 27.105883-8.282353-5.270588-16.564706-11.294118-24.847059-16.564706-0.752941-1.505882-2.258824-2.258824-3.764706-3.764706-9.035294-9.035294-15.811765-18.823529-21.835294-30.117647-8.282353-16.564706-19.576471-31.623529-33.129412-44.42353-0.752941-0.752941-3.011765 0.752941-2.258823 1.505883 4.517647 8.282353 10.541176 14.305882 16.564705 21.835294 7.529412 9.788235 12.8 20.329412 18.82353 30.870588 2.258824 3.764706 4.517647 6.776471 6.77647 9.035294-21.082353-15.811765-41.411765-31.623529-63.247058-46.682353-0.752941-0.752941-1.505882 0.752941-0.752942 1.505883l49.694118 42.917647c-6.023529-2.258824-12.8-3.011765-15.811765-4.517647-18.070588-6.776471-31.623529-17.317647-46.682353-28.611765-1.505882-0.752941-3.764706-0.752941-3.011764 0.752941 15.811765 27.105882 50.447059 35.388235 78.305882 39.905882 9.035294 12.8 16.564706 14.305882 24.847059 20.329412-6.023529-1.505882-11.294118-1.505882-15.811765-3.011765-12.047059-3.764706-24.847059-6.776471-36.894117-11.294117-12.047059-4.517647-23.341176-11.294118-35.388236-17.317647-1.505882-0.752941-3.764706 1.505882-2.258823 3.011764 16.564706 17.317647 41.411765 23.341176 64 30.117647 12.047059 3.764706 29.364706 5.270588 42.917647 11.294118l22.588235 13.552941c-8.282353-0.752941-16.564706-1.505882-24.094118-2.258823-21.835294-2.258824-41.411765-6.776471-61.741176-14.305883-1.505882-0.752941-3.011765 1.505882-1.505882 2.258824 13.552941 13.552941 36.894118 15.811765 54.964706 17.317647 16.564706 1.505882 33.882353 3.011765 50.447058 5.270588 8.282353 3.764706 17.317647 7.529412 26.352942 10.541177-6.023529 0.752941-12.047059 0.752941-18.070589 0.752941-18.070588-2.258824-36.141176-7.529412-54.211764-8.282353-0.752941 0-1.505882 1.505882-0.752942 2.258823 17.317647 4.517647 36.141176 10.541176 54.211765 12.047059 11.294118 0.752941 22.588235-1.505882 33.882353-2.258823 6.776471 1.505882 13.552941 2.258824 20.329412 2.258823 6.023529 0 14.305882 0 23.341176-0.752941 1.505882-2.258824 3.011765-5.270588 4.517647-9.035294z" fill="#515D33" /><path d="M747.670588 353.129412L299.670588 438.211765l-10.541176-58.729412 440.470588-91.858824z" fill="#D64544" /><path d="M242.447059 486.4l578.258823-111.435294-22.588235-42.917647L237.929412 444.235294z" fill="#3A2747" /></svg>