<?xml version="1.0" standalone="no"?><!DOCTYPE svg PUBLIC "-//W3C//DTD SVG 1.1//EN" "http://www.w3.org/Graphics/SVG/1.1/DTD/svg11.dtd"><svg class="icon" width="200px" height="200.00px" viewBox="0 0 1024 1024" version="1.1" xmlns="http://www.w3.org/2000/svg"><path d="M746.164706 410.352941c3.764706-20.329412 3.764706-41.411765 3.011765-60.235294v-0.752941c-1.505882-30.870588-3.011765-62.494118-29.364706-93.364706-11.294118-12.8-24.847059-19.576471-40.658824-21.082353-21.082353-2.258824-45.176471 4.517647-70.023529 18.823529-21.082353-26.352941-53.458824-42.164706-87.341177-42.164705s-66.258824 15.811765-87.341176 41.411764c-24.847059-14.305882-48.188235-21.082353-70.02353-18.823529-15.811765 1.505882-29.364706 9.035294-40.658823 21.082353-26.352941 30.117647-27.858824 61.741176-29.364706 92.611765v0.752941c-0.752941 12.8-0.752941 27.858824 0.752941 42.917647-99.388235 55.717647-182.964706 149.835294-150.588235 223.623529 19.576471 43.670588 50.447059 52.705882 73.035294 52.705883 27.105882 0 57.976471-13.552941 94.117647-39.905883-12.047059 72.282353-24.847059 100.894118-30.870588 105.411765-14.305882 8.282353-17.317647 21.082353-15.058824 30.870588 3.011765 16.564706 19.576471 27.105882 54.964706 37.647059 25.6 7.529412 57.223529 13.552941 90.352941 16.564706 6.023529 0.752941 17.317647 0.752941 24.847059 1.505882v9.788235c0 42.164706 37.647059 76.8 84.329412 76.8h0.752941c47.435294 0 80.564706-35.388235 80.564706-76.8V820.705882c30.117647-0.752941 45.176471-2.258824 56.470588-3.764706 111.435294-16.564706 117.458824-42.164706 118.964706-51.2 1.505882-9.788235-0.752941-22.588235-15.058823-30.117647-5.270588-4.517647-15.811765-26.352941-26.352942-82.070588 21.835294 12.047059 41.411765 18.823529 59.482353 18.82353 22.588235 0 53.458824-10.541176 73.035294-54.211765 30.117647-68.517647-37.647059-152.094118-121.97647-207.811765zM539.858824 310.964706c-11.294118-4.517647-24.847059-4.517647-36.141177 0l-9.035294-9.035294c6.776471-7.529412 15.811765-12.047059 26.352941-12.047059s20.329412 4.517647 26.352941 12.8c-2.258824 2.258824-4.517647 5.270588-7.529411 8.282353z" fill="#FFFFFF" /><path d="M490.917647 408.847059l-21.082353 15.811765c-36.141176 47.435294-242.447059 322.258824-304.188235 182.211764-46.682353-105.411765 239.435294-291.388235 313.223529-216.847059 3.011765 3.011765 6.023529 6.776471 8.282353 10.541177 1.505882 3.011765 2.258824 5.270588 3.764706 8.282353z" fill="#667A45" /><path d="M487.152941 400.564706c-16.564706-1.505882-32.376471 0.752941-48.188235 6.023529-12.047059 9.788235-18.823529 25.6-24.847059 40.658824-4.517647 11.294118-9.035294 27.858824-20.329412 35.388235-1.505882 0.752941-3.764706-0.752941-3.011764-2.258823 7.529412-18.823529 16.564706-38.4 26.352941-56.470589 2.258824-3.764706 4.517647-8.282353 7.529412-12.047058-8.282353 3.011765-16.564706 7.529412-24.847059 11.294117-6.776471 7.529412-14.305882 15.058824-18.82353 23.341177-7.529412 13.552941-9.788235 27.105882-13.552941 42.164706-5.270588 19.576471-12.8 36.141176-26.352941 50.447058-1.505882 1.505882-3.011765-0.752941-2.258824-2.258823 6.023529-13.552941 14.305882-25.6 18.82353-39.905883 3.764706-12.8 5.270588-26.352941 9.788235-38.4 3.764706-9.035294 8.282353-17.317647 14.305882-24.847058-12.047059 7.529412-24.094118 16.564706-33.882352 24.847058-28.611765 40.658824-34.635294 94.117647-65.505883 134.02353-0.752941 0.752941-3.011765 0.752941-2.258823-0.752941 12.047059-28.611765 25.6-55.717647 36.894117-84.329412 5.270588-13.552941 10.541176-25.6 17.317647-37.647059-9.788235 8.282353-18.823529 16.564706-27.858823 25.6-1.505882 1.505882-2.258824 3.764706-3.764706 5.270588-9.788235 12.8-16.564706 26.352941-22.588235 41.411765-8.282353 22.588235-18.823529 42.917647-33.882353 61.741177-0.752941 1.505882-3.764706 0-3.011765-1.505883 4.517647-11.294118 11.294118-20.329412 16.564706-30.117647 7.529412-13.552941 12.047059-27.858824 18.070588-42.917647 1.505882-4.517647 4.517647-9.035294 6.776471-12.8-24.094118 23.341176-47.435294 47.435294-72.282353 70.023529-0.752941 0.752941-2.258824-0.752941-1.505883-1.505882 18.070588-21.082353 36.894118-42.164706 55.717647-63.247059-7.529412 3.764706-15.811765 6.023529-19.57647 8.282353-21.835294 12.047059-37.647059 27.105882-54.211765 44.42353-1.505882 1.505882-4.517647 1.505882-3.764706 0 15.811765-37.647059 57.976471-49.694118 91.858824-64.752942 9.035294-7.529412 18.070588-21.082353 27.858823-29.364705-7.529412 3.011765-14.305882 4.517647-19.57647 6.77647-15.058824 6.776471-30.117647 12.8-44.42353 21.082353-15.058824 8.282353-27.858824 18.823529-42.164706 27.858824-2.258824 1.505882-4.517647-1.505882-3.011764-3.764706 18.070588-24.094118 48.941176-36.894118 75.294117-48.941177 15.058824-6.776471 36.894118-12.047059 51.952942-21.835294 8.282353-7.529412 17.317647-14.305882 26.352941-21.082353-10.541176 2.258824-21.082353 4.517647-30.117647 6.776471-27.105882 6.023529-51.2 15.811765-76.047059 28.611765-1.505882 0.752941-3.764706-0.752941-3.011765-3.011765 14.305882-20.329412 44.423529-26.352941 67.011765-31.62353 21.082353-4.517647 42.164706-9.788235 62.494118-15.811764 10.541176-6.776471 21.082353-12.8 31.623529-18.070589-7.529412 0-15.811765 0.752941-22.588235 2.258824-22.588235 6.023529-44.423529 15.811765-67.764706 20.329412-1.505882 0-2.258824-1.505882-0.752941-2.258824 21.835294-9.035294 43.670588-20.329412 66.258823-24.847059 14.305882-3.011765 28.611765-2.258824 42.917647-3.011764 8.282353-3.011765 17.317647-5.270588 25.6-6.776471 7.529412-0.752941 18.823529-2.258824 29.364706-3.011765 3.764706 3.011765 6.776471 6.776471 9.035294 10.541177z" fill="#515D33" /><path d="M522.541176 408.847059l21.082353 15.811765c36.141176 47.435294 242.447059 322.258824 304.188236 182.211764 46.682353-105.411765-239.435294-291.388235-313.22353-216.847059-3.011765 3.011765-6.023529 6.776471-8.282353 10.541177-1.505882 3.011765-3.011765 5.270588-3.764706 8.282353z" fill="#667A45" /><path d="M526.305882 400.564706c15.811765-1.505882 32.376471 0.752941 48.188236 5.270588 12.047059 9.788235 18.823529 25.6 24.847058 40.658824 4.517647 11.294118 9.035294 27.858824 20.329412 35.388235 1.505882 0.752941 3.764706-0.752941 3.011765-2.258824-7.529412-18.823529-16.564706-38.4-26.352941-56.470588-2.258824-3.764706-4.517647-8.282353-7.529412-12.047059 8.282353 3.011765 16.564706 7.529412 24.847059 11.294118 6.776471 7.529412 14.305882 15.058824 18.823529 23.341176 7.529412 13.552941 9.788235 27.105882 13.552941 42.164706 5.270588 19.576471 12.8 36.141176 26.352942 50.447059 1.505882 1.505882 3.011765-0.752941 2.258823-2.258823-6.023529-13.552941-14.305882-25.6-18.823529-39.905883-3.764706-12.8-5.270588-26.352941-9.788236-38.4-3.764706-9.035294-8.282353-17.317647-14.305882-24.847059 12.047059 7.529412 24.094118 16.564706 33.882353 24.847059 28.611765 40.658824 34.635294 94.117647 65.505882 134.02353 0.752941 0.752941 3.011765 0.752941 2.258824-0.752941-12.047059-28.611765-25.6-55.717647-36.894118-84.329412-5.270588-13.552941-10.541176-25.6-17.317647-37.647059 9.788235 8.282353 18.823529 16.564706 27.858824 25.6 1.505882 1.505882 2.258824 3.764706 3.764706 5.270588 9.788235 12.8 16.564706 26.352941 22.588235 41.411765 8.282353 22.588235 18.823529 42.917647 33.882353 61.741176 0.752941 1.505882 3.764706 0 3.011765-1.505882-4.517647-11.294118-11.294118-20.329412-16.564706-30.117647-7.529412-13.552941-12.047059-27.858824-18.070589-42.917647-1.505882-4.517647-4.517647-9.035294-6.77647-12.8 24.094118 23.341176 47.435294 47.435294 72.282353 70.023529 0.752941 0.752941 2.258824-0.752941 1.505882-1.505882-18.070588-21.082353-36.894118-42.164706-55.717647-63.247059 7.529412 3.764706 15.811765 6.023529 19.576471 8.282353 21.835294 12.047059 37.647059 27.105882 54.211764 44.423529 1.505882 1.505882 4.517647 1.505882 3.764706 0-15.811765-37.647059-57.976471-49.694118-91.858823-64.752941-9.035294-7.529412-18.070588-21.082353-27.858824-29.364706 7.529412 3.011765 14.305882 4.517647 19.576471 6.776471 15.058824 6.776471 30.117647 12.8 44.423529 21.082353 15.058824 8.282353 27.858824 18.823529 42.164706 27.858823 2.258824 1.505882 4.517647-1.505882 3.011765-3.764705-18.070588-24.094118-48.941176-36.894118-75.294118-48.941177-15.058824-6.776471-36.894118-12.047059-51.952941-21.835294-8.282353-7.529412-17.317647-14.305882-26.352941-21.082353 10.541176 2.258824 21.082353 4.517647 30.117647 6.776471 27.105882 6.023529 51.2 15.811765 76.047059 28.611764 1.505882 0.752941 3.764706-0.752941 3.011764-3.011764-14.305882-20.329412-44.423529-26.352941-67.011764-31.62353-21.082353-4.517647-42.164706-9.788235-62.494118-15.811764-10.541176-6.776471-21.082353-12.8-31.623529-18.070589 7.529412 0 15.811765 0.752941 22.588235 2.258824 22.588235 6.023529 44.423529 15.811765 67.764706 20.329412 1.505882 0 2.258824-1.505882 0.752941-2.258824-21.835294-9.035294-43.670588-20.329412-66.258824-24.847059-14.305882-3.011765-28.611765-2.258824-42.917647-3.011764-8.282353-3.011765-17.317647-5.270588-25.6-6.776471-7.529412-0.752941-18.823529-2.258824-29.364706-3.011765-4.517647 3.764706-6.776471 7.529412-9.035294 11.294118z" fill="#515D33" /><path d="M579.011765 832c0 28.611765-23.341176 54.211765-57.22353 54.211765h-0.752941c-33.882353 0-61.741176-25.6-61.741176-54.211765V710.023529c0-28.611765 27.105882-57.976471 61.741176-57.97647h1.505882c33.882353 0 57.976471 29.364706 57.976471 57.97647v121.976471z" fill="#D29509" /><path d="M751.435294 755.2C716.047059 735.623529 700.235294 564.705882 700.235294 564.705882l-0.752941 0.752942C688.188235 463.058824 612.141176 384 520.282353 384c-100.141176 0-180.705882 92.611765-180.705882 207.058824v6.77647c-6.776471 50.447059-21.835294 143.058824-47.435295 157.364706-22.588235 12.047059 42.917647 33.882353 121.976471 42.164706 35.388235 3.764706 201.035294 3.011765 243.2-3.764706 65.505882-9.788235 113.694118-27.858824 94.117647-38.4z" fill="#EFAA0B" /><path d="M521.788235 414.117647c-49.694118 0-89.6-39.905882-89.6-89.6 0-49.694118 39.905882-89.6 89.6-89.6 49.694118 0 89.6 39.905882 89.6 89.6 0 49.694118-40.658824 89.6-89.6 89.6z m0-147.576471c-31.623529 0-57.976471 25.6-57.97647 57.976471 0 31.623529 25.6 57.976471 57.97647 57.976471 31.623529 0 57.976471-25.6 57.976471-57.976471 0-31.623529-26.352941-57.976471-57.976471-57.976471z" fill="#EFAA0B" /><path d="M524.047059 393.035294c-6.023529 15.058824-12.8 41.411765-19.576471 70.02353-16.564706 71.529412-33.129412 163.388235-33.129412 163.388235l-26.352941-63.247059-56.470588 32.376471c7.529412-45.929412 21.082353-85.835294 35.388235-117.458824 30.117647-68.517647 66.258824-104.658824 66.258824-104.658823l33.882353 19.57647z" fill="#BA1E3D" /><path d="M524.047059 393.035294c-6.023529 15.058824-12.8 41.411765-19.576471 70.02353-28.611765 12.047059-58.729412 15.058824-81.317647 15.058823 30.117647-68.517647 66.258824-104.658824 66.258824-104.658823l34.635294 19.57647z" fill="#961831" /><path d="M516.517647 393.035294c6.023529 15.058824 12.8 41.411765 19.576471 70.02353 16.564706 71.529412 33.129412 163.388235 33.129411 163.388235l26.352942-63.247059 56.470588 32.376471c-7.529412-45.929412-21.082353-85.835294-35.388235-117.458824-30.117647-68.517647-66.258824-104.658824-66.258824-104.658823l-33.882353 19.57647z" fill="#BA1E3D" /><path d="M516.517647 393.035294c6.023529 15.058824 12.8 41.411765 19.576471 70.02353 28.611765 12.047059 58.729412 15.058824 81.317647 15.058823-30.117647-68.517647-66.258824-104.658824-66.258824-104.658823l-34.635294 19.57647z" fill="#961831" /><path d="M512 354.635294c0-4.517647-10.541176-12.8-12.8-15.058823-11.294118-12.047059-23.341176-24.094118-35.388235-35.388236-24.094118-21.835294-62.494118-48.941176-97.129412-45.929411-10.541176 0.752941-18.823529 6.023529-25.6 13.552941-21.082353 24.094118-22.588235 48.941176-23.341177 79.058823-1.505882 28.611765-0.752941 57.976471 11.294118 85.082353 5.270588 12.047059 14.305882 23.341176 27.105882 28.611765 60.988235 26.352941 134.023529-36.141176 158.117648-81.317647l-2.258824-28.611765z" fill="#BA1E3D" /><path d="M510.494118 371.2s-123.482353-87.341176-128-8.282353c-3.764706 79.058824 95.623529 32.376471 140.047058 11.294118l-12.047058-3.011765z" fill="#961831" /><path d="M531.576471 354.635294c0-4.517647 10.541176-12.8 12.8-15.058823 11.294118-12.047059 23.341176-24.094118 35.388235-35.388236 24.094118-21.835294 62.494118-48.941176 97.129412-45.929411 10.541176 0.752941 18.823529 6.023529 25.6 13.552941 21.082353 24.094118 22.588235 48.941176 23.341176 79.058823 1.505882 28.611765 0.752941 57.976471-11.294118 85.082353-5.270588 12.047059-14.305882 23.341176-27.105882 28.611765-60.988235 26.352941-134.023529-36.141176-158.117647-81.317647l2.258824-28.611765z" fill="#BA1E3D" /><path d="M533.082353 371.2s123.482353-87.341176 128-8.282353c3.764706 79.058824-95.623529 32.376471-140.047059 11.294118l12.047059-3.011765z" fill="#961831" /><path d="M554.917647 374.211765c0 24.094118-14.305882 43.670588-32.376471 43.670588s-32.376471-19.576471-32.37647-43.670588c0-24.094118 14.305882-43.670588 32.37647-43.670589 17.317647 0 32.376471 19.576471 32.376471 43.670589z" fill="#BA1E3D" /></svg>