<?xml version="1.0" standalone="no"?><!DOCTYPE svg PUBLIC "-//W3C//DTD SVG 1.1//EN" "http://www.w3.org/Graphics/SVG/1.1/DTD/svg11.dtd"><svg class="icon" width="200px" height="200.00px" viewBox="0 0 1024 1024" version="1.1" xmlns="http://www.w3.org/2000/svg"><path d="M185.223529 685.176471l9.035295 13.552941 1.505882 2.258823c8.282353 12.8 18.070588 24.847059 27.858823 36.894118l0.752942 0.752941c3.011765 3.011765 6.023529 6.776471 8.282353 9.788235l0.752941 0.752942c15.058824 16.564706 32.376471 31.623529 50.447059 45.17647l2.258823 1.505883c4.517647 3.011765 9.035294 6.776471 13.552941 9.788235l0.752941 0.752941c15.811765 10.541176 32.376471 18.823529 48.941177 26.352941 11.294118 5.270588 23.341176 8.282353 35.388235 13.552941 18.823529 9.035294 37.647059 12.8 54.964706 15.058824 2.258824 0.752941 3.764706 1.505882 6.023529 2.258823h0.752942c8.282353 2.258824 15.811765 3.011765 21.835294 3.764706 2.258824 0 3.764706 0 6.023529 0.752941 2.258824 0 4.517647 0.752941 6.776471 0 12.047059 1.505882 24.847059 1.505882 37.647059 1.505883 2.258824 0 3.764706 0.752941 6.023529 0.752941 15.058824-0.752941 27.858824-3.011765 41.411765-5.270588h1.505882c0.752941 0 2.258824 0 3.011765-0.752941h1.505882c51.2-9.035294 101.647059-28.611765 143.811765-57.976471h0.752941c3.764706-2.258824 7.529412-5.270588 10.541176-7.529412l1.505883-1.505882c1.505882-0.752941 3.011765-2.258824 4.517647-3.011765l0.752941-0.752941c0.752941-0.752941 2.258824-1.505882 3.011765-2.258824 3.011765-2.258824 6.023529-5.270588 9.035294-7.529411 15.058824-12.8 29.364706-27.105882 42.164706-42.164706l1.505882-1.505883c19.576471-23.341176 35.388235-48.941176 48.941177-76.047058 3.011765-6.023529 5.270588-12.047059 8.282353-18.82353 4.517647-11.294118 9.035294-22.588235 12.047058-32.37647 6.023529-19.576471 9.788235-38.4 11.294118-55.717647 6.776471-40.658824 3.764706-85.082353-9.035294-133.270589-4.517647-17.317647-10.541176-34.635294-17.317647-51.2 0-0.752941 0-0.752941-0.752941-1.505882-4.517647-10.541176-9.788235-21.082353-15.811765-32.376471l-1.505882-3.011764c-2.258824-3.764706-4.517647-8.282353-6.776471-12.047059l-2.258824-3.764706c-2.258824-3.764706-4.517647-7.529412-7.529411-11.294118 0-0.752941-0.752941-0.752941-0.752941-1.505882-0.752941-0.752941-0.752941-1.505882-1.505883-2.258824l-0.752941-0.752941c-2.258824-3.011765-3.764706-6.023529-6.023529-9.035294l-3.011765-3.764706-6.776471-9.035294-2.258823-2.258823-0.752941-0.752942c-2.258824-3.011765-5.270588-6.023529-8.282353-9.788235l-1.505883-1.505882c-33.882353-37.647059-73.788235-67.764706-119.717647-88.847059-10.541176-4.517647-20.329412-7.529412-30.117647-10.541176-8.282353-3.011765-16.564706-4.517647-23.341176-8.282353h-0.752941c-3.764706-1.505882-6.776471-3.011765-10.541177-3.764706-6.776471-0.752941-14.305882-3.011765-21.835294-4.517647-8.282353-2.258824-16.564706-4.517647-25.6-5.270589h-3.011765c-5.270588-0.752941-11.294118-1.505882-17.317647-1.505882-3.011765 0-5.270588 0-8.282353-0.752941H484.894118c-3.764706 0-6.776471 0-10.541177 0.752941H467.576471c-33.882353 2.258824-67.764706 10.541176-100.894118 22.588235l-0.752941-2.258823H365.176471c-0.752941 0-0.752941 0-1.505883 0.752941-8.282353 3.011765-14.305882 6.023529-21.082353 9.035294-0.752941 0-1.505882 0.752941-1.505882 0.752941-2.258824 1.505882-5.270588 2.258824-8.282353 3.764706-3.011765 1.505882-5.270588 3.011765-8.282353 4.517647-3.011765 1.505882-5.270588 3.011765-8.282353 4.517647-3.011765 1.505882-6.023529 3.764706-9.788235 5.270589l-0.752941 1.505882c-1.505882 0.752941-3.011765 1.505882-4.517647 3.011765-5.270588 3.011765-9.788235 6.776471-15.058824 9.788235-1.505882 0.752941-2.258824 1.505882-3.764706 3.011765l-1.505882 1.505882c-3.011765 2.258824-6.776471 5.270588-9.788235 7.529412-2.258824 1.505882-3.764706 3.011765-6.02353 5.270588-3.011765 2.258824-6.023529 5.270588-9.035294 7.529412l-0.752941 0.752941c-1.505882 1.505882-3.011765 3.011765-4.517647 3.764706-3.764706 3.011765-6.776471 6.023529-9.788236 9.788235l-0.752941 0.752941-2.258823 2.258824-1.505883 1.505882-4.517647 4.517647c-10.541176 10.541176-21.835294 21.835294-30.117647 36.894118-14.305882 16.564706-23.341176 35.388235-33.129411 55.717647-1.505882 3.764706-3.764706 7.529412-4.517648 10.541176l-2.258823 5.270589c-0.752941 3.011765-2.258824 5.270588-3.011765 8.282353l-4.517647 7.529411c-0.752941 1.505882-0.752941 3.011765-1.505882 4.517647l-2.258824 6.02353v0.752941c-0.752941 3.011765-1.505882 5.270588-2.258823 8.282353l-0.752941 2.258823c-0.752941 3.764706-2.258824 6.776471-3.011765 10.541177-0.752941 2.258824-0.752941 4.517647-1.505882 6.77647-0.752941 3.011765-1.505882 6.776471-2.258824 9.788236-2.258824 11.294118-3.764706 23.341176-5.270588 35.388235 0 3.011765-0.752941 5.270588-0.752941 8.282353v43.670588c0 4.517647 0.752941 8.282353 0.752941 12.8v2.258824c0.752941 3.764706 0.752941 8.282353 1.505882 12.047059v3.011764c0.752941 3.764706 1.505882 8.282353 2.258824 12.047059l0.752941 3.011765c1.505882 9.788235 3.764706 20.329412 6.77647 29.364706 5.270588 18.070588 11.294118 36.894118 19.576471 53.458823 0 0.752941 0 0.752941 0.752941 1.505883 2.258824 5.270588 5.270588 11.294118 8.282353 17.317647l0.752941 1.505882c2.258824 5.270588 5.270588 9.788235 8.282353 15.058824l0.752941 4.517647z" fill="#FFFFFF" /><path d="M811.670588 651.294118c-2.258824 4.517647-3.764706 9.035294-6.023529 12.8-10.541176 21.082353-24.094118 39.905882-38.4 57.223529-12.047059 14.305882-25.6 27.858824-39.905883 39.905882l-9.035294 6.776471-9.035294 6.776471c-3.011765 2.258824-6.776471 4.517647-9.788235 6.77647-23.341176 15.811765-48.188235 27.858824-75.294118 37.647059-19.576471 6.776471-39.905882 12.8-60.235294 15.811765-0.752941 0-1.505882 0-2.258823 0.752941-12.8 2.258824-25.6 3.764706-39.152942 4.517647h-0.752941c-13.552941 0.752941-27.858824 0-41.411764-1.505882-0.752941 0-2.258824 0.752941-3.011765 0-9.035294-1.505882-19.576471-0.752941-27.858824-4.517647h-0.752941c-18.823529-2.258824-39.152941-5.270588-56.470588-13.552942l-31.623529-13.552941c-21.082353-9.788235-40.658824-21.835294-58.729412-35.388235-27.858824-21.082353-51.952941-45.176471-72.282353-72.282353-15.058824-19.576471-27.105882-41.411765-36.894118-63.247059-7.529412-16.564706-13.552941-33.882353-18.070588-51.2-9.035294-34.635294-12.8-70.023529-11.294118-106.164706 1.505882-24.847059 6.023529-50.447059 13.552941-75.294117 0.752941-1.505882 0.752941-3.011765 1.505883-4.517647 0.752941-3.764706 2.258824-6.776471 3.011765-9.788236 2.258824-6.776471 5.270588-13.552941 8.282352-20.329412 1.505882-3.011765 6.023529-5.270588 7.529412-9.035294 9.035294-18.823529 20.329412-35.388235 33.882353-50.447058 6.776471-15.058824 17.317647-27.858824 29.364706-39.905883l-1.505882-0.752941c28.611765-28.611765 60.988235-51.952941 97.129411-68.517647l20.329412-9.035294c2.258824-0.752941 4.517647-1.505882 6.776471-3.011765l6.77647-2.258823c3.011765-0.752941 6.776471-2.258824 9.788236-3.011765 23.341176-6.776471 46.682353-11.294118 70.77647-13.552941 23.341176-1.505882 46.682353-1.505882 70.02353 1.505882 16.564706 2.258824 32.376471 7.529412 50.447059 9.035294l0.752941-0.752941h0.752941c16.564706 7.529412 35.388235 12.8 52.705882 21.082353 20.329412 9.788235 39.152941 21.082353 56.470588 33.882353 32.376471 24.094118 58.729412 52.705882 80.564706 85.082353 12.8 18.823529 30.870588 38.4 30.870589 59.482353 7.529412 15.811765 15.058824 33.129412 19.57647 49.694117 10.541176 40.658824 16.564706 84.329412 9.788235 125.741177l-1.505882-0.752941c-2.258824 35.388235-14.305882 66.258824-29.364706 97.882353z" fill="#F8E8D7" /><path d="M816.188235 380.235294c-25.6 37.647059-100.141176 91.858824-315.482353 130.258824 0 0 178.447059-210.070588 90.352942-329.035294l0.752941-0.752942h0.752941c16.564706 7.529412 35.388235 12.8 52.705882 21.082353 80.564706 38.4 139.294118 103.152941 170.917647 178.447059z" fill="#D64544" /><path d="M496.941176 511.247059S404.329412 251.482353 256.752941 269.552941c73.035294-74.541176 179.2-110.682353 284.611765-97.129412 19.576471 40.658824 29.364706 132.517647-44.42353 338.82353z" fill="#D64544" /><path d="M497.694118 516.517647s-250.729412-46.682353-322.258824 70.023529c-19.576471-73.035294-12.8-152.094118 21.835294-225.129411 9.035294-18.823529 19.576471-36.141176 33.129412-51.2 33.882353-1.505882 126.494118 39.905882 267.294118 206.305882z" fill="#D64544" /><path d="M392.282353 821.458824c-10.541176-3.764706-21.835294-8.282353-32.376471-13.552942-77.552941-36.894118-135.529412-98.635294-167.905882-170.164706 33.129412-36.141176 112.941176-83.576471 305.694118-118.211764-0.752941 0-154.352941 180.705882-105.411765 301.929412zM727.341176 761.976471c-75.294118 64-177.694118 91.858824-277.835294 74.541176-13.552941-48.188235-11.294118-141.552941 51.952942-317.741176 0.752941 0 86.588235 243.2 225.882352 243.2z" fill="#D64544" /><path d="M812.423529 651.294118c-12.047059 25.6-27.105882 49.694118-45.17647 70.023529-46.682353-6.776471-129.505882-48.188235-263.529412-207.058823 0 0 269.552941 49.694118 329.035294-85.835295 18.823529 73.035294 12.8 150.588235-20.329412 222.870589z" fill="#D64544" /><path d="M508.235294 521.788235s-0.752941-0.752941 0 0c-0.752941-1.505882-1.505882-4.517647-1.505882-8.282353-7.529412-43.670588-46.682353-249.976471-151.341177-312.470588 36.141176-16.564706 76.8-26.352941 116.705883-30.117647 18.823529 53.458824 40.658824 157.364706 37.647058 350.117647-0.752941 0.752941-1.505882 0-1.505882 0.752941z" fill="#FD6666" /><path d="M506.729412 513.505882s1.505882-3.764706 0.752941-3.764706c-0.752941-0.752941-2.258824-4.517647-5.270588-6.77647-44.423529-7.529412-229.647059-76.047059-338.070589-26.352941 2.258824-36.894118 9.788235-72.282353 24.847059-107.670589 56.470588 11.294118 155.105882 46.682353 316.988236 143.058824 0.752941 0 0 1.505882 0.752941 1.505882z" fill="#FD6666" /><path d="M499.2 509.741176c-0.752941 0.752941-3.011765 2.258824-6.023529 5.270589-31.623529 26.352941-167.905882 143.811765-191.247059 257.505882-27.858824-21.082353-52.705882-45.176471-72.282353-72.282353 41.411765-42.917647 120.470588-106.917647 269.552941-190.494118zM624.941176 820.705882c-19.576471 6.776471-39.905882 12.8-60.235294 16.564706-0.752941 0-1.505882 0-2.258823 0.752941-13.552941 2.258824-24.094118 4.517647-37.647059 5.270589-16.564706-58.729412-36.894118-161.129412-27.105882-325.270589l-2.258824-1.505882h-0.752941c0 1.505882 0 3.764706 0.752941 7.529412 6.023529 39.905882 40.658824 221.364706 129.505882 296.658823z" fill="#FD6666" /><path d="M811.670588 651.294118c-2.258824 4.517647-3.764706 9.035294-6.023529 12.8-57.223529-12.8-154.352941-48.188235-310.211765-140.8h-0.752941s-0.752941 0-0.752941-0.752942h0.752941s0.752941-0.752941 1.505882-0.752941c1.505882 0.752941 3.764706 0 6.776471 1.505883 39.152941 18.823529 230.4 82.070588 338.070588 30.117647-3.011765 33.129412-14.305882 66.258824-29.364706 97.882353z" fill="#FD6666" /><path d="M783.811765 321.505882c-37.647059 42.917647-117.458824 111.435294-282.352941 204.047059H500.705882h0.752942c0.752941-0.752941 3.011765-2.258824 6.023529-4.517647 33.882353-27.858824 189.741176-163.388235 194.258823-283.858823 32.376471 23.341176 60.235294 51.952941 82.070589 84.329411z" fill="#FD6666" /></svg>